Bodoni-36-Book.ufo
<glyph name="dollar" format="2">
  <advance width="1109"/>
  <unicode hex="0024"/>
  <outline>
    <contour>
      <point x="631" y="1660" type="line"/>
      <point x="643" y="1660" type="line"/>
      <point x="643" y="-160" type="line"/>
      <point x="631" y="-160" type="line"/>
    </contour>
    <contour>
      <point x="455" y="1660" type="line"/>
      <point x="467" y="1660" type="line"/>
      <point x="467" y="-160" type="line"/>
      <point x="455" y="-160" type="line"/>
    </contour>
    <contour>
      <point x="978" y="1227" type="curve"/>
      <point x="968" y="1374"/>
      <point x="813" y="1508"/>
      <point x="592" y="1508" type="curve" smooth="yes"/>
      <point x="380" y="1508"/>
      <point x="260" y="1368"/>
      <point x="260" y="1210" type="curve" smooth="yes"/>
      <point x="260" y="840"/>
      <point x="1030" y="960"/>
      <point x="1030" y="420" type="curve" smooth="yes"/>
      <point x="1030" y="140"/>
      <point x="834" y="-30"/>
      <point x="552" y="-30" type="curve" smooth="yes"/>
      <point x="203" y="-30"/>
      <point x="60" y="160"/>
      <point x="60" y="290" type="curve" smooth="yes"/>
      <point x="60" y="382"/>
      <point x="112" y="454"/>
      <point x="200" y="454" type="curve" smooth="yes"/>
      <point x="260" y="454"/>
      <point x="328" y="410"/>
      <point x="328" y="322" type="curve" smooth="yes"/>
      <point x="328" y="242"/>
      <point x="262" y="192"/>
      <point x="194" y="192" type="curve" smooth="yes"/>
      <point x="142" y="192"/>
      <point x="96" y="227"/>
      <point x="77" y="256" type="curve"/>
      <point x="95" y="153"/>
      <point x="220" y="-20"/>
      <point x="551" y="-20" type="curve" smooth="yes"/>
      <point x="763" y="-20"/>
      <point x="890" y="132"/>
      <point x="890" y="330" type="curve" smooth="yes"/>
      <point x="890" y="740"/>
      <point x="120" y="610"/>
      <point x="120" y="1130" type="curve" smooth="yes"/>
      <point x="120" y="1370"/>
      <point x="349" y="1520"/>
      <point x="591" y="1520" type="curve" smooth="yes"/>
      <point x="825" y="1520"/>
      <point x="990" y="1372"/>
      <point x="990" y="1210" type="curve" smooth="yes"/>
      <point x="990" y="1118"/>
      <point x="938" y="1046"/>
      <point x="850" y="1046" type="curve" smooth="yes"/>
      <point x="790" y="1046"/>
      <point x="722" y="1090"/>
      <point x="722" y="1178" type="curve" smooth="yes"/>
      <point x="722" y="1258"/>
      <point x="788" y="1308"/>
      <point x="856" y="1308" type="curve" smooth="yes"/>
      <point x="911" y="1308"/>
      <point x="963" y="1268"/>
    </contour>
  </outline>
</glyph>
<glyph name="ampersand" format="2">
  <advance width="1607"/>
  <unicode hex="0026"/>
  <outline>
    <contour>
      <point x="692" y="876" type="curve"/>
      <point x="687" y="884" type="line"/>
      <point x="783" y="943"/>
      <point x="902" y="1056"/>
      <point x="902" y="1260" type="curve" smooth="yes"/>
      <point x="902" y="1354"/>
      <point x="868" y="1509"/>
      <point x="718" y="1509" type="curve" smooth="yes"/>
      <point x="564" y="1509"/>
      <point x="512" y="1386"/>
      <point x="512" y="1280" type="curve" smooth="yes"/>
      <point x="512" y="1210"/>
      <point x="562" y="1108"/>
      <point x="648" y="980" type="curve" smooth="yes"/>
      <point x="1280" y="12" type="line"/>
      <point x="1538" y="12" type="line"/>
      <point x="1538" y="0" type="line"/>
      <point x="1070" y="0" type="line"/>
      <point x="408" y="980" type="line" smooth="yes"/>
      <point x="356" y="1056"/>
      <point x="316" y="1156"/>
      <point x="316" y="1226" type="curve" smooth="yes"/>
      <point x="316" y="1406"/>
      <point x="486" y="1520"/>
      <point x="718" y="1520" type="curve" smooth="yes"/>
      <point x="932" y="1520"/>
      <point x="1095" y="1415"/>
      <point x="1095" y="1255" type="curve" smooth="yes"/>
      <point x="1095" y="1038"/>
      <point x="903" y="985"/>
    </contour>
    <contour>
      <point x="558" y="805" type="curve"/>
      <point x="562" y="798" type="line"/>
      <point x="391" y="706"/>
      <point x="300" y="575"/>
      <point x="300" y="355" type="curve" smooth="yes"/>
      <point x="300" y="195"/>
      <point x="430" y="21"/>
      <point x="618" y="21" type="curve" smooth="yes"/>
      <point x="1014" y="21"/>
      <point x="1311" y="496"/>
      <point x="1348" y="917" type="curve"/>
      <point x="1361" y="917" type="line"/>
      <point x="1318" y="471"/>
      <point x="1004" y="-20"/>
      <point x="538" y="-20" type="curve" smooth="yes"/>
      <point x="272" y="-20"/>
      <point x="80" y="114"/>
      <point x="80" y="345" type="curve" smooth="yes"/>
      <point x="80" y="636"/>
      <point x="482" y="768"/>
    </contour>
    <contour>
      <point x="1088" y="920" type="line"/>
      <point x="1568" y="920" type="line"/>
      <point x="1568" y="908" type="line"/>
      <point x="1088" y="908" type="line"/>
    </contour>
  </outline>
</glyph>
<glyph name="plus" format="2">
  <advance width="1059"/>
  <unicode hex="002B"/>
  <outline>
    <contour>
      <point x="524" y="220" type="line"/>
      <point x="524" y="1040" type="line"/>
      <point x="537" y="1040" type="line"/>
      <point x="537" y="220" type="line"/>
    </contour>
    <contour>
      <point x="120" y="638" type="line"/>
      <point x="940" y="638" type="line"/>
      <point x="940" y="625" type="line"/>
      <point x="120" y="625" type="line"/>
    </contour>
  </outline>
</glyph>
<glyph name="comma" format="2">
  <advance width="429"/>
  <unicode hex="002C"/>
  <outline>
    <contour>
      <point x="80" y="98" type="curve" smooth="yes"/>
      <point x="80" y="164"/>
      <point x="138" y="216"/>
      <point x="214" y="216" type="curve" smooth="yes"/>
      <point x="292" y="216"/>
      <point x="354" y="154"/>
      <point x="354" y="8" type="curve" smooth="yes"/>
      <point x="354" y="-132"/>
      <point x="256" y="-296"/>
      <point x="76" y="-296" type="curve"/>
      <point x="76" y="-284" type="line"/>
      <point x="247" y="-284"/>
      <point x="375" y="-115"/>
      <point x="333" y="92" type="curve"/>
      <point x="322" y="33"/>
      <point x="273" y="-20"/>
      <point x="204" y="-20" type="curve" smooth="yes"/>
      <point x="121" y="-20"/>
      <point x="80" y="32"/>
    </contour>
  </outline>
</glyph>
<glyph name="two" format="2">
  <advance width="1099"/>
  <unicode hex="0032"/>
  <outline>
    <contour>
      <point x="1030" y="0" type="line"/>
      <point x="80" y="0" type="line"/>
      <point x="80" y="130" type="line"/>
      <point x="519" y="556" type="line" smooth="yes"/>
      <point x="699" y="731"/>
      <point x="788" y="912"/>
      <point x="788" y="1100" type="curve" smooth="yes"/>
      <point x="788" y="1326"/>
      <point x="698" y="1496"/>
      <point x="487" y="1496" type="curve" smooth="yes"/>
      <point x="272" y="1496"/>
      <point x="105" y="1315"/>
      <point x="119" y="1084" type="curve"/>
      <point x="136" y="1125"/>
      <point x="172" y="1164"/>
      <point x="238" y="1164" type="curve" smooth="yes"/>
      <point x="296" y="1164"/>
      <point x="356" y="1122"/>
      <point x="356" y="1052" type="curve" smooth="yes"/>
      <point x="356" y="972"/>
      <point x="300" y="924"/>
      <point x="230" y="924" type="curve" smooth="yes"/>
      <point x="160" y="924"/>
      <point x="102" y="974"/>
      <point x="102" y="1096" type="curve" smooth="yes"/>
      <point x="102" y="1330"/>
      <point x="256" y="1520"/>
      <point x="550" y="1520" type="curve" smooth="yes"/>
      <point x="832" y="1520"/>
      <point x="988" y="1340"/>
      <point x="988" y="1140" type="curve" smooth="yes"/>
      <point x="988" y="940"/>
      <point x="822" y="832"/>
      <point x="714" y="726" type="curve" smooth="yes"/>
      <point x="150" y="180" type="line"/>
      <point x="1018" y="180" type="line"/>
      <point x="1018" y="330" type="line"/>
      <point x="1030" y="330" type="line"/>
    </contour>
  </outline>
</glyph>
<glyph name="three" format="2">
  <advance width="1039"/>
  <unicode hex="0033"/>
  <outline>
    <contour>
      <point x="959" y="400" type="curve" smooth="yes"/>
      <point x="959" y="140"/>
      <point x="741" y="-20"/>
      <point x="459" y="-20" type="curve" smooth="yes"/>
      <point x="175" y="-20"/>
      <point x="47" y="128"/>
      <point x="47" y="272" type="curve" smooth="yes"/>
      <point x="47" y="354"/>
      <point x="97" y="402"/>
      <point x="167" y="402" type="curve" smooth="yes"/>
      <point x="227" y="402"/>
      <point x="276" y="362"/>
      <point x="276" y="290" type="curve" smooth="yes"/>
      <point x="276" y="226"/>
      <point x="220" y="180"/>
      <point x="162" y="180" type="curve" smooth="yes"/>
      <point x="107" y="180"/>
      <point x="72" y="213"/>
      <point x="63" y="249" type="curve"/>
      <point x="70" y="126"/>
      <point x="194" y="-3"/>
      <point x="438" y="-3" type="curve" smooth="yes"/>
      <point x="676" y="-3"/>
      <point x="757" y="212"/>
      <point x="757" y="400" type="curve" smooth="yes"/>
      <point x="757" y="548"/>
      <point x="702" y="804"/>
      <point x="364" y="804" type="curve"/>
      <point x="364" y="812" type="line"/>
      <point x="846" y="812"/>
      <point x="959" y="620"/>
    </contour>
    <contour>
      <point x="364" y="807" type="curve"/>
      <point x="364" y="816" type="line"/>
      <point x="682" y="816"/>
      <point x="698" y="1054"/>
      <point x="698" y="1182" type="curve" smooth="yes"/>
      <point x="698" y="1330"/>
      <point x="625" y="1504"/>
      <point x="467" y="1504" type="curve" smooth="yes"/>
      <point x="314" y="1504"/>
      <point x="154" y="1414"/>
      <point x="125" y="1278" type="curve"/>
      <point x="146" y="1318"/>
      <point x="184" y="1338"/>
      <point x="221" y="1338" type="curve" smooth="yes"/>
      <point x="279" y="1338"/>
      <point x="335" y="1298"/>
      <point x="335" y="1228" type="curve" smooth="yes"/>
      <point x="335" y="1148"/>
      <point x="271" y="1117"/>
      <point x="221" y="1117" type="curve" smooth="yes"/>
      <point x="161" y="1117"/>
      <point x="108" y="1159"/>
      <point x="108" y="1241" type="curve" smooth="yes"/>
      <point x="108" y="1385"/>
      <point x="276" y="1518"/>
      <point x="480" y="1518" type="curve" smooth="yes"/>
      <point x="702" y="1518"/>
      <point x="900" y="1402"/>
      <point x="900" y="1182" type="curve" smooth="yes"/>
      <point x="900" y="982"/>
      <point x="826" y="807"/>
    </contour>
  </outline>
</glyph>
<glyph name="four" format="2">
  <advance width="1189"/>
  <unicode hex="0034"/>
  <outline>
    <contour>
      <point x="1100" y="12" type="line"/>
      <point x="1100" y="0" type="line"/>
      <point x="570" y="0" type="line"/>
      <point x="570" y="12" type="line"/>
      <point x="760" y="12" type="line"/>
      <point x="760" y="1433" type="line"/>
      <point x="92" y="436" type="line"/>
      <point x="1170" y="436" type="line"/>
      <point x="1170" y="423" type="line"/>
      <point x="69" y="423" type="line"/>
      <point x="790" y="1500" type="line"/>
      <point x="950" y="1500" type="line"/>
      <point x="950" y="12" type="line"/>
    </contour>
  </outline>
</glyph>
<glyph name="five" format="2">
  <advance width="1000"/>
  <unicode hex="0035"/>
  <outline>
    <contour>
      <point x="870" y="1320" type="line"/>
      <point x="146" y="1320" type="line"/>
      <point x="146" y="754" type="line"/>
      <point x="134" y="754" type="line"/>
      <point x="134" y="1500" type="line"/>
      <point x="858" y="1500" type="line"/>
      <point x="858" y="1610" type="line"/>
      <point x="870" y="1610" type="line"/>
    </contour>
    <contour>
      <point x="80" y="216" type="curve"/>
      <point x="100" y="101"/>
      <point x="249" y="-4"/>
      <point x="412" y="-4" type="curve" smooth="yes"/>
      <point x="670" y="-4"/>
      <point x="730" y="272"/>
      <point x="730" y="460" type="curve" smooth="yes"/>
      <point x="730" y="688"/>
      <point x="639" y="919"/>
      <point x="461" y="919" type="curve" smooth="yes"/>
      <point x="294" y="919"/>
      <point x="179" y="818"/>
      <point x="149" y="754" type="curve"/>
      <point x="138" y="754" type="line"/>
      <point x="170" y="828"/>
      <point x="302" y="940"/>
      <point x="504" y="940" type="curve" smooth="yes"/>
      <point x="766" y="940"/>
      <point x="940" y="760"/>
      <point x="940" y="460" type="curve" smooth="yes"/>
      <point x="940" y="200"/>
      <point x="734" y="-20"/>
      <point x="432" y="-20" type="curve" smooth="yes"/>
      <point x="228" y="-20"/>
      <point x="60" y="114"/>
      <point x="60" y="258" type="curve" smooth="yes"/>
      <point x="60" y="340"/>
      <point x="114" y="382"/>
      <point x="174" y="382" type="curve" smooth="yes"/>
      <point x="224" y="382"/>
      <point x="288" y="350"/>
      <point x="288" y="270" type="curve" smooth="yes"/>
      <point x="288" y="200"/>
      <point x="232" y="160"/>
      <point x="174" y="160" type="curve" smooth="yes"/>
      <point x="130" y="160"/>
      <point x="93" y="190"/>
    </contour>
  </outline>
</glyph>
<glyph name="seven" format="2">
  <advance width="1009"/>
  <unicode hex="0037"/>
  <outline>
    <contour>
      <point x="336" y="152" type="curve" smooth="yes"/>
      <point x="336" y="310"/>
      <point x="490" y="518"/>
      <point x="602" y="736" type="curve" smooth="yes"/>
      <point x="680" y="886"/>
      <point x="801" y="1136"/>
      <point x="883" y="1310" type="curve"/>
      <point x="92" y="1310" type="line"/>
      <point x="92" y="1160" type="line"/>
      <point x="80" y="1160" type="line"/>
      <point x="80" y="1500" type="line"/>
      <point x="990" y="1500" type="line"/>
      <point x="990" y="1500"/>
      <point x="754" y="1011"/>
      <point x="615" y="733" type="curve" smooth="yes"/>
      <point x="522" y="546"/>
      <point x="478" y="487"/>
      <point x="478" y="399" type="curve" smooth="yes"/>
      <point x="478" y="253"/>
      <point x="596" y="223"/>
      <point x="596" y="116" type="curve" smooth="yes"/>
      <point x="596" y="42"/>
      <point x="556" y="-20"/>
      <point x="468" y="-20" type="curve" smooth="yes"/>
      <point x="390" y="-20"/>
      <point x="336" y="31"/>
    </contour>
  </outline>
</glyph>
<glyph name="eight" format="2">
  <advance width="1099"/>
  <unicode hex="0038"/>
  <outline>
    <contour>
      <point x="320" y="1120" type="curve" smooth="yes"/>
      <point x="320" y="952"/>
      <point x="372" y="778"/>
      <point x="550" y="778" type="curve" smooth="yes"/>
      <point x="728" y="778"/>
      <point x="780" y="952"/>
      <point x="780" y="1120" type="curve" smooth="yes"/>
      <point x="780" y="1288"/>
      <point x="728" y="1507"/>
      <point x="550" y="1507" type="curve" smooth="yes"/>
      <point x="372" y="1507"/>
      <point x="320" y="1288"/>
    </contour>
    <contour>
      <point x="120" y="1120" type="curve" smooth="yes"/>
      <point x="120" y="1340"/>
      <point x="268" y="1520"/>
      <point x="550" y="1520" type="curve" smooth="yes"/>
      <point x="832" y="1520"/>
      <point x="980" y="1340"/>
      <point x="980" y="1120" type="curve" smooth="yes"/>
      <point x="980" y="900"/>
      <point x="832" y="769"/>
      <point x="550" y="769" type="curve" smooth="yes"/>
      <point x="268" y="769"/>
      <point x="120" y="900"/>
    </contour>
    <contour>
      <point x="280" y="380" type="curve" smooth="yes"/>
      <point x="280" y="192"/>
      <point x="352" y="-7"/>
      <point x="550" y="-7" type="curve" smooth="yes"/>
      <point x="748" y="-7"/>
      <point x="820" y="192"/>
      <point x="820" y="380" type="curve" smooth="yes"/>
      <point x="820" y="568"/>
      <point x="748" y="763"/>
      <point x="550" y="763" type="curve" smooth="yes"/>
      <point x="352" y="763"/>
      <point x="280" y="568"/>
    </contour>
    <contour>
      <point x="80" y="380" type="curve" smooth="yes"/>
      <point x="80" y="620"/>
      <point x="228" y="773"/>
      <point x="550" y="773" type="curve" smooth="yes"/>
      <point x="872" y="773"/>
      <point x="1020" y="620"/>
      <point x="1020" y="380" type="curve" smooth="yes"/>
      <point x="1020" y="140"/>
      <point x="872" y="-20"/>
      <point x="550" y="-20" type="curve" smooth="yes"/>
      <point x="228" y="-20"/>
      <point x="80" y="140"/>
    </contour>
  </outline>
</glyph>
<glyph name="question" format="2">
  <advance width="1099"/>
  <unicode hex="003F"/>
  <outline>
    <contour>
      <point x="488" y="699" type="line"/>
      <point x="702" y="743"/>
      <point x="798" y="934"/>
      <point x="798" y="1120" type="curve" smooth="yes"/>
      <point x="798" y="1308"/>
      <point x="759" y="1506"/>
      <point x="521" y="1506" type="curve" smooth="yes"/>
      <point x="302" y="1506"/>
      <point x="150" y="1334"/>
      <point x="137" y="1222" type="curve"/>
      <point x="146" y="1247"/>
      <point x="180" y="1280"/>
      <point x="235" y="1280" type="curve" smooth="yes"/>
      <point x="293" y="1280"/>
      <point x="348" y="1240"/>
      <point x="348" y="1170" type="curve" smooth="yes"/>
      <point x="348" y="1090"/>
      <point x="284" y="1058"/>
      <point x="234" y="1058" type="curve" smooth="yes"/>
      <point x="174" y="1058"/>
      <point x="120" y="1100"/>
      <point x="120" y="1182" type="curve" smooth="yes"/>
      <point x="120" y="1346"/>
      <point x="308" y="1520"/>
      <point x="532" y="1520" type="curve" smooth="yes"/>
      <point x="814" y="1520"/>
      <point x="1000" y="1360"/>
      <point x="1000" y="1120" type="curve" smooth="yes"/>
      <point x="1000" y="890"/>
      <point x="782" y="709"/>
      <point x="500" y="691" type="curve"/>
      <point x="500" y="418" type="line"/>
      <point x="488" y="418" type="line"/>
    </contour>
    <component base="period" xOffset="298"/>
  </outline>
</glyph>
<glyph name="at" format="2">
  <advance width="4136"/>
  <unicode hex="0040"/>
  <outline>
    <contour>
      <point x="2529" y="1427" type="curve" smooth="yes"/>
      <point x="2529" y="826"/>
      <point x="2188" y="287"/>
      <point x="1778" y="287" type="curve" smooth="yes"/>
      <point x="1454" y="287"/>
      <point x="1163" y="516"/>
      <point x="1163" y="942" type="curve" smooth="yes"/>
      <point x="1163" y="1556"/>
      <point x="1635" y="2167"/>
      <point x="2122" y="2167" type="curve" smooth="yes"/>
      <point x="2454" y="2167"/>
      <point x="2529" y="1763"/>
    </contour>
    <contour>
      <point x="2508" y="1417" type="curve" smooth="yes"/>
      <point x="2508" y="1589"/>
      <point x="2489" y="2126"/>
      <point x="2156" y="2126" type="curve" smooth="yes"/>
      <point x="1853" y="2126"/>
      <point x="1577" y="1428"/>
      <point x="1577" y="920" type="curve" smooth="yes"/>
      <point x="1577" y="646"/>
      <point x="1638" y="328"/>
      <point x="1837" y="328" type="curve" smooth="yes"/>
      <point x="2174" y="328"/>
      <point x="2508" y="861"/>
    </contour>
    <contour>
      <point x="2417" y="860" type="curve" smooth="yes"/>
      <point x="2712" y="2130" type="line"/>
      <point x="3080" y="2130" type="line"/>
      <point x="2785" y="860" type="line" smooth="yes"/>
      <point x="2773" y="807"/>
      <point x="2588" y="320"/>
      <point x="2903" y="320" type="curve" smooth="yes"/>
      <point x="3489" y="320"/>
      <point x="3887" y="995"/>
      <point x="3887" y="1642" type="curve" smooth="yes"/>
      <point x="3887" y="2380"/>
      <point x="3420" y="3211"/>
      <point x="2395" y="3211" type="curve" smooth="yes"/>
      <point x="1215" y="3211"/>
      <point x="251" y="2132"/>
      <point x="251" y="864" type="curve" smooth="yes"/>
      <point x="251" y="-403"/>
      <point x="981" y="-851"/>
      <point x="1716" y="-851" type="curve" smooth="yes"/>
      <point x="2382" y="-851"/>
      <point x="2849" y="-644"/>
      <point x="3196" y="-245" type="curve"/>
      <point x="3215" y="-262" type="line"/>
      <point x="2871" y="-663"/>
      <point x="2384" y="-877"/>
      <point x="1716" y="-877" type="curve" smooth="yes"/>
      <point x="966" y="-877"/>
      <point x="225" y="-424"/>
      <point x="225" y="864" type="curve" smooth="yes"/>
      <point x="225" y="2146"/>
      <point x="1196" y="3236"/>
      <point x="2396" y="3236" type="curve" smooth="yes"/>
      <point x="3432" y="3236"/>
      <point x="3912" y="2392"/>
      <point x="3912" y="1642" type="curve" smooth="yes"/>
      <point x="3912" y="987"/>
      <point x="3530" y="279"/>
      <point x="2830" y="279" type="curve" smooth="yes"/>
      <point x="2465" y="279"/>
      <point x="2360" y="606"/>
    </contour>
  </outline>
</glyph>
<glyph name="A" format="2">
  <advance width="1489"/>
  <unicode hex="0041"/>
  <outline>
    <contour>
      <point x="42" y="12" type="line"/>
      <point x="483" y="12" type="line"/>
      <point x="483" y="0" type="line"/>
      <point x="42" y="0" type="line"/>
    </contour>
    <contour>
      <point x="867" y="12" type="line"/>
      <point x="1447" y="12" type="line"/>
      <point x="1447" y="0" type="line"/>
      <point x="867" y="0" type="line"/>
    </contour>
    <contour>
      <point x="408" y="495" type="line"/>
      <point x="1046" y="495" type="line"/>
      <point x="1046" y="482" type="line"/>
      <point x="408" y="482" type="line"/>
    </contour>
    <contour>
      <point x="682" y="1256" type="line"/>
      <point x="243" y="0" type="line"/>
      <point x="229" y="0" type="line"/>
      <point x="764" y="1530" type="line"/>
      <point x="776" y="1530" type="line"/>
      <point x="1306" y="0" type="line"/>
      <point x="1086" y="0" type="line"/>
    </contour>
  </outline>
</glyph>
<glyph name="B" format="2">
  <advance width="1270"/>
  <unicode hex="0042"/>
  <outline>
    <contour>
      <point x="623" y="767" type="curve" smooth="yes"/>
      <point x="403" y="767" type="line"/>
      <point x="403" y="777" type="line"/>
      <point x="623" y="777" type="line" smooth="yes"/>
      <point x="775" y="777"/>
      <point x="922" y="872"/>
      <point x="922" y="1110" type="curve" smooth="yes"/>
      <point x="922" y="1348"/>
      <point x="775" y="1488"/>
      <point x="623" y="1488" type="curve" smooth="yes"/>
      <point x="42" y="1488" type="line"/>
      <point x="42" y="1500" type="line"/>
      <point x="623" y="1500" type="line" smooth="yes"/>
      <point x="925" y="1500"/>
      <point x="1123" y="1390"/>
      <point x="1123" y="1130" type="curve" smooth="yes"/>
      <point x="1123" y="870"/>
      <point x="945" y="767"/>
    </contour>
    <contour>
      <point x="222" y="1500" type="line"/>
      <point x="413" y="1500" type="line"/>
      <point x="413" y="0" type="line"/>
      <point x="222" y="0" type="line"/>
    </contour>
    <contour>
      <point x="663" y="0" type="curve" smooth="yes"/>
      <point x="42" y="0" type="line"/>
      <point x="42" y="12" type="line"/>
      <point x="642" y="12" type="line" smooth="yes"/>
      <point x="814" y="12"/>
      <point x="962" y="182"/>
      <point x="962" y="420" type="curve" smooth="yes"/>
      <point x="962" y="658"/>
      <point x="814" y="764"/>
      <point x="642" y="764" type="curve" smooth="yes"/>
      <point x="403" y="764" type="line"/>
      <point x="403" y="773" type="line"/>
      <point x="663" y="773" type="line" smooth="yes"/>
      <point x="945" y="773"/>
      <point x="1182" y="680"/>
      <point x="1182" y="420" type="curve" smooth="yes"/>
      <point x="1182" y="120"/>
      <point x="985" y="0"/>
    </contour>
  </outline>
</glyph>
<glyph name="C" format="2">
  <advance width="1357"/>
  <unicode hex="0043"/>
  <outline>
    <contour>
      <point x="1232" y="1500" type="line"/>
      <point x="1244" y="1500" type="line"/>
      <point x="1244" y="1090" type="line"/>
      <point x="1234" y="1222"/>
      <point x="1176" y="1312"/>
      <point x="1111" y="1381" type="curve"/>
    </contour>
    <contour>
      <point x="1244" y="1090" type="curve"/>
      <point x="1231" y="1090" type="line"/>
      <point x="1229" y="1332"/>
      <point x="1015" y="1501"/>
      <point x="790" y="1501" type="curve" smooth="yes"/>
      <point x="442" y="1501"/>
      <point x="320" y="1114"/>
      <point x="320" y="750" type="curve" smooth="yes"/>
      <point x="320" y="386"/>
      <point x="442" y="-1"/>
      <point x="790" y="-1" type="curve" smooth="yes"/>
      <point x="1065" y="-1"/>
      <point x="1249" y="189"/>
      <point x="1251" y="410" type="curve"/>
      <point x="1263" y="410" type="line"/>
      <point x="1263" y="164"/>
      <point x="1055" y="-20"/>
      <point x="769" y="-20" type="curve" smooth="yes"/>
      <point x="363" y="-20"/>
      <point x="89" y="304"/>
      <point x="89" y="750" type="curve" smooth="yes"/>
      <point x="89" y="1196"/>
      <point x="363" y="1520"/>
      <point x="769" y="1520" type="curve" smooth="yes"/>
      <point x="1025" y="1520"/>
      <point x="1244" y="1336"/>
    </contour>
    <contour>
      <point x="1263" y="410" type="curve"/>
      <point x="1263" y="0" type="line"/>
      <point x="1252" y="0" type="line"/>
      <point x="1140" y="129" type="line"/>
      <point x="1201" y="196"/>
      <point x="1251" y="273"/>
    </contour>
  </outline>
</glyph>
<glyph name="D" format="2">
  <advance width="1411"/>
  <unicode hex="0044"/>
  <outline>
    <contour>
      <point x="222" y="1500" type="line"/>
      <point x="413" y="1500" type="line"/>
      <point x="413" y="0" type="line"/>
      <point x="222" y="0" type="line"/>
    </contour>
    <contour>
      <point x="602" y="0" type="curve" smooth="yes"/>
      <point x="42" y="0" type="line"/>
      <point x="42" y="12" type="line"/>
      <point x="602" y="12" type="line" smooth="yes"/>
      <point x="970" y="12"/>
      <point x="1092" y="386"/>
      <point x="1092" y="750" type="curve" smooth="yes"/>
      <point x="1092" y="1114"/>
      <point x="950" y="1488"/>
      <point x="602" y="1488" type="curve" smooth="yes"/>
      <point x="42" y="1488" type="line"/>
      <point x="42" y="1500" type="line"/>
      <point x="602" y="1500" type="line" smooth="yes"/>
      <point x="1048" y="1500"/>
      <point x="1323" y="1176"/>
      <point x="1323" y="750" type="curve" smooth="yes"/>
      <point x="1323" y="324"/>
      <point x="1028" y="0"/>
    </contour>
  </outline>
</glyph>
<glyph name="E" format="2">
  <advance width="1181"/>
  <unicode hex="0045"/>
  <outline>
    <contour>
      <point x="1104" y="450" type="curve"/>
      <point x="1117" y="450" type="line"/>
      <point x="1117" y="0" type="line"/>
      <point x="42" y="0" type="line"/>
      <point x="42" y="12" type="line"/>
      <point x="733" y="12" type="line" smooth="yes"/>
      <point x="1007" y="12"/>
      <point x="1104" y="196"/>
    </contour>
    <contour>
      <point x="222" y="1500" type="line"/>
      <point x="413" y="1500" type="line"/>
      <point x="413" y="0" type="line"/>
      <point x="222" y="0" type="line"/>
    </contour>
    <contour>
      <point x="42" y="1500" type="line"/>
      <point x="1096" y="1500" type="line"/>
      <point x="1096" y="1090" type="line"/>
      <point x="1084" y="1090" type="line"/>
      <point x="1084" y="1304"/>
      <point x="986" y="1488"/>
      <point x="752" y="1488" type="curve" smooth="yes"/>
      <point x="42" y="1488" type="line"/>
    </contour>
    <contour>
      <point x="744" y="556" type="line"/>
      <point x="744" y="690"/>
      <point x="647" y="770"/>
      <point x="533" y="770" type="curve" smooth="yes"/>
      <point x="373" y="770" type="line"/>
      <point x="373" y="783" type="line"/>
      <point x="533" y="783" type="line" smooth="yes"/>
      <point x="647" y="783"/>
      <point x="744" y="852"/>
      <point x="744" y="986" type="curve"/>
      <point x="756" y="986" type="line"/>
      <point x="756" y="556" type="line"/>
    </contour>
  </outline>
</glyph>
<glyph name="F" format="2">
  <advance width="1141"/>
  <unicode hex="0046"/>
  <outline>
    <contour>
      <point x="42" y="1500" type="line"/>
      <point x="1077" y="1500" type="line"/>
      <point x="1077" y="1090" type="line"/>
      <point x="1064" y="1090" type="line"/>
      <point x="1064" y="1304"/>
      <point x="967" y="1488"/>
      <point x="733" y="1488" type="curve" smooth="yes"/>
      <point x="42" y="1488" type="line"/>
    </contour>
    <contour>
      <point x="42" y="12" type="line"/>
      <point x="613" y="12" type="line"/>
      <point x="613" y="0" type="line"/>
      <point x="42" y="0" type="line"/>
    </contour>
    <contour>
      <point x="222" y="1500" type="line"/>
      <point x="413" y="1500" type="line"/>
      <point x="413" y="0" type="line"/>
      <point x="222" y="0" type="line"/>
    </contour>
    <contour>
      <point x="764" y="536" type="line"/>
      <point x="764" y="670"/>
      <point x="676" y="740"/>
      <point x="502" y="740" type="curve" smooth="yes"/>
      <point x="373" y="740" type="line"/>
      <point x="373" y="752" type="line"/>
      <point x="502" y="752" type="line" smooth="yes"/>
      <point x="676" y="752"/>
      <point x="764" y="812"/>
      <point x="764" y="946" type="curve"/>
      <point x="776" y="946" type="line"/>
      <point x="776" y="536" type="line"/>
    </contour>
  </outline>
</glyph>
<glyph name="G" format="2">
  <advance width="1435"/>
  <unicode hex="0047"/>
  <outline>
    <contour>
      <point x="1244" y="1090" type="line"/>
      <point x="1237" y="1208"/>
      <point x="1179" y="1317"/>
      <point x="1111" y="1383" type="curve"/>
      <point x="1232" y="1500" type="line"/>
      <point x="1244" y="1500" type="line"/>
    </contour>
    <contour>
      <point x="870" y="577" type="line"/>
      <point x="1410" y="577" type="line"/>
      <point x="1410" y="563" type="line"/>
      <point x="870" y="563" type="line"/>
    </contour>
    <contour>
      <point x="1080" y="569" type="line"/>
      <point x="1290" y="569" type="line"/>
      <point x="1290" y="330" type="line"/>
      <point x="1230" y="204"/>
      <point x="1066" y="-20"/>
      <point x="740" y="-20" type="curve" smooth="yes"/>
      <point x="324" y="-20"/>
      <point x="89" y="304"/>
      <point x="89" y="750" type="curve" smooth="yes"/>
      <point x="89" y="1196"/>
      <point x="363" y="1520"/>
      <point x="769" y="1520" type="curve" smooth="yes"/>
      <point x="1025" y="1520"/>
      <point x="1244" y="1336"/>
      <point x="1244" y="1090" type="curve"/>
      <point x="1231" y="1090" type="line"/>
      <point x="1229" y="1335"/>
      <point x="1018" y="1501"/>
      <point x="790" y="1501" type="curve" smooth="yes"/>
      <point x="442" y="1501"/>
      <point x="320" y="1114"/>
      <point x="320" y="750" type="curve" smooth="yes"/>
      <point x="320" y="386"/>
      <point x="402" y="-7"/>
      <point x="740" y="-7" type="curve" smooth="yes"/>
      <point x="988" y="-7"/>
      <point x="1060" y="206"/>
      <point x="1080" y="250" type="curve"/>
    </contour>
  </outline>
</glyph>
<glyph name="H" format="2">
  <advance width="1484"/>
  <unicode hex="0048"/>
  <outline>
    <contour>
      <point x="373" y="747" type="line"/>
      <point x="1113" y="747" type="line"/>
      <point x="1113" y="734" type="line"/>
      <point x="373" y="734" type="line"/>
    </contour>
    <contour>
      <point x="873" y="12" type="line"/>
      <point x="1443" y="12" type="line"/>
      <point x="1443" y="0" type="line"/>
      <point x="873" y="0" type="line"/>
    </contour>
    <contour>
      <point x="42" y="12" type="line"/>
      <point x="613" y="12" type="line"/>
      <point x="613" y="0" type="line"/>
      <point x="42" y="0" type="line"/>
    </contour>
    <contour>
      <point x="873" y="1500" type="line"/>
      <point x="1443" y="1500" type="line"/>
      <point x="1443" y="1488" type="line"/>
      <point x="873" y="1488" type="line"/>
    </contour>
    <contour>
      <point x="42" y="1500" type="line"/>
      <point x="613" y="1500" type="line"/>
      <point x="613" y="1488" type="line"/>
      <point x="42" y="1488" type="line"/>
    </contour>
    <contour>
      <point x="1073" y="1500" type="line"/>
      <point x="1262" y="1500" type="line"/>
      <point x="1262" y="0" type="line"/>
      <point x="1073" y="0" type="line"/>
    </contour>
    <contour>
      <point x="222" y="1500" type="line"/>
      <point x="413" y="1500" type="line"/>
      <point x="413" y="0" type="line"/>
      <point x="222" y="0" type="line"/>
    </contour>
  </outline>
</glyph>
<glyph name="I" format="2">
  <advance width="734"/>
  <unicode hex="0049"/>
  <outline>
    <contour>
      <point x="42" y="12" type="line"/>
      <point x="693" y="12" type="line"/>
      <point x="693" y="0" type="line"/>
      <point x="42" y="0" type="line"/>
    </contour>
    <contour>
      <point x="42" y="1500" type="line"/>
      <point x="693" y="1500" type="line"/>
      <point x="693" y="1488" type="line"/>
      <point x="42" y="1488" type="line"/>
    </contour>
    <contour>
      <point x="262" y="1500" type="line"/>
      <point x="453" y="1500" type="line"/>
      <point x="453" y="0" type="line"/>
      <point x="262" y="0" type="line"/>
    </contour>
  </outline>
</glyph>
<glyph name="J" format="2">
  <advance width="875"/>
  <unicode hex="004A"/>
  <outline>
    <contour>
      <point x="183" y="1500" type="line"/>
      <point x="833" y="1500" type="line"/>
      <point x="833" y="1488" type="line"/>
      <point x="183" y="1488" type="line"/>
    </contour>
    <contour>
      <point x="443" y="1500" type="line"/>
      <point x="633" y="1500" type="line"/>
      <point x="633" y="340" type="line"/>
      <point x="593" y="200"/>
      <point x="515" y="-60"/>
      <point x="274" y="-60" type="curve" smooth="yes"/>
      <point x="120" y="-60"/>
      <point x="42" y="68"/>
      <point x="42" y="168" type="curve" smooth="yes"/>
      <point x="42" y="252"/>
      <point x="95" y="298"/>
      <point x="155" y="298" type="curve" smooth="yes"/>
      <point x="205" y="298"/>
      <point x="267" y="262"/>
      <point x="267" y="180" type="curve" smooth="yes"/>
      <point x="267" y="103"/>
      <point x="210" y="67"/>
      <point x="145" y="67" type="curve" smooth="yes"/>
      <point x="103" y="67"/>
      <point x="77" y="82"/>
      <point x="70" y="85" type="curve"/>
      <point x="92" y="39"/>
      <point x="149" y="-47"/>
      <point x="273" y="-47" type="curve" smooth="yes"/>
      <point x="433" y="-47"/>
      <point x="443" y="100"/>
      <point x="443" y="380" type="curve" smooth="yes"/>
    </contour>
  </outline>
</glyph>
<glyph name="K" format="2">
  <advance width="1368"/>
  <unicode hex="004B"/>
  <outline>
    <contour>
      <point x="42" y="12" type="line"/>
      <point x="613" y="12" type="line"/>
      <point x="613" y="0" type="line"/>
      <point x="42" y="0" type="line"/>
    </contour>
    <contour>
      <point x="42" y="1500" type="line"/>
      <point x="613" y="1500" type="line"/>
      <point x="613" y="1488" type="line"/>
      <point x="42" y="1488" type="line"/>
    </contour>
    <contour>
      <point x="222" y="1500" type="line"/>
      <point x="413" y="1500" type="line"/>
      <point x="413" y="0" type="line"/>
      <point x="222" y="0" type="line"/>
    </contour>
    <contour>
      <point x="254" y="434" type="line"/>
      <point x="237" y="434" type="line"/>
      <point x="1025" y="1496" type="line"/>
      <point x="1042" y="1496" type="line"/>
    </contour>
    <contour>
      <point x="733" y="12" type="line"/>
      <point x="1352" y="12" type="line"/>
      <point x="1352" y="0" type="line"/>
      <point x="733" y="0" type="line"/>
    </contour>
    <contour>
      <point x="1262" y="1488" type="line"/>
      <point x="783" y="1488" type="line"/>
      <point x="783" y="1500" type="line"/>
      <point x="1262" y="1500" type="line"/>
    </contour>
    <contour>
      <point x="1197" y="0" type="line"/>
      <point x="957" y="0" type="line"/>
      <point x="508" y="792" type="line"/>
      <point x="629" y="953" type="line"/>
    </contour>
  </outline>
</glyph>
<glyph name="L" format="2">
  <advance width="2360"/>
  <unicode hex="004C"/>
  <outline>
    <contour>
      <point x="455" y="3072" type="line"/>
      <point x="845" y="3072" type="line"/>
      <point x="845" y="0" type="line"/>
      <point x="455" y="0" type="line"/>
    </contour>
    <contour>
      <point x="87" y="3072" type="line"/>
      <point x="1213" y="3072" type="line"/>
      <point x="1213" y="3047" type="line"/>
      <point x="87" y="3047" type="line"/>
    </contour>
    <contour>
      <point x="2265" y="0" type="line"/>
      <point x="87" y="0" type="line"/>
      <point x="87" y="25" type="line"/>
      <point x="1479" y="25" type="line" smooth="yes"/>
      <point x="2122" y="25"/>
      <point x="2240" y="402"/>
      <point x="2240" y="922" type="curve"/>
      <point x="2265" y="922" type="line"/>
    </contour>
  </outline>
</glyph>
<glyph name="M" format="2">
  <advance width="1673"/>
  <unicode hex="004D"/>
  <outline>
    <contour>
      <point x="1632" y="1500" type="line"/>
      <point x="1632" y="1488" type="line"/>
      <point x="1492" y="1488" type="line"/>
      <point x="1492" y="0" type="line"/>
      <point x="1302" y="0" type="line"/>
      <point x="1302" y="1500" type="line"/>
    </contour>
    <contour>
      <point x="52" y="12" type="line"/>
      <point x="362" y="12" type="line"/>
      <point x="362" y="0" type="line"/>
      <point x="52" y="0" type="line"/>
    </contour>
    <contour>
      <point x="1142" y="12" type="line"/>
      <point x="1632" y="12" type="line"/>
      <point x="1632" y="0" type="line"/>
      <point x="1142" y="0" type="line"/>
    </contour>
    <contour>
      <point x="854" y="256" type="line"/>
      <point x="1293" y="1500" type="line"/>
      <point x="1306" y="1500" type="line"/>
      <point x="772" y="-20" type="line"/>
      <point x="758" y="-20" type="line"/>
      <point x="203" y="1500" type="line"/>
      <point x="394" y="1500" type="line"/>
    </contour>
    <contour>
      <point x="196" y="1488" type="line"/>
      <point x="42" y="1488" type="line"/>
      <point x="42" y="1500" type="line"/>
      <point x="209" y="1500" type="line"/>
      <point x="209" y="0" type="line"/>
      <point x="196" y="0" type="line"/>
    </contour>
  </outline>
</glyph>
<glyph name="N" format="2">
  <advance width="1481"/>
  <unicode hex="004E"/>
  <outline>
    <contour>
      <point x="1217" y="1500" type="line"/>
      <point x="1230" y="1500" type="line"/>
      <point x="1230" y="-20" type="line"/>
      <point x="1214" y="-20" type="line"/>
      <point x="247" y="1500" type="line"/>
      <point x="476" y="1500" type="line"/>
      <point x="1217" y="305" type="line"/>
    </contour>
    <contour>
      <point x="980" y="1500" type="line"/>
      <point x="1440" y="1500" type="line"/>
      <point x="1440" y="1488" type="line"/>
      <point x="980" y="1488" type="line"/>
    </contour>
    <contour>
      <point x="42" y="12" type="line"/>
      <point x="495" y="12" type="line"/>
      <point x="495" y="0" type="line"/>
      <point x="42" y="0" type="line"/>
    </contour>
    <contour>
      <point x="242" y="1488" type="line"/>
      <point x="42" y="1488" type="line"/>
      <point x="42" y="1500" type="line"/>
      <point x="254" y="1500" type="line"/>
      <point x="254" y="0" type="line"/>
      <point x="242" y="0" type="line"/>
    </contour>
  </outline>
</glyph>
<glyph name="P" format="2">
  <advance width="1240"/>
  <unicode hex="0050"/>
  <outline>
    <contour>
      <point x="222" y="1500" type="line"/>
      <point x="413" y="1500" type="line"/>
      <point x="413" y="0" type="line"/>
      <point x="222" y="0" type="line"/>
    </contour>
    <contour>
      <point x="42" y="12" type="line"/>
      <point x="592" y="12" type="line"/>
      <point x="592" y="0" type="line"/>
      <point x="42" y="0" type="line"/>
    </contour>
    <contour>
      <point x="632" y="671" type="curve" smooth="yes"/>
      <point x="373" y="671" type="line"/>
      <point x="373" y="683" type="line"/>
      <point x="632" y="683" type="line" smooth="yes"/>
      <point x="824" y="683"/>
      <point x="932" y="900"/>
      <point x="932" y="1078" type="curve" smooth="yes"/>
      <point x="932" y="1256"/>
      <point x="824" y="1488"/>
      <point x="632" y="1488" type="curve" smooth="yes"/>
      <point x="42" y="1488" type="line"/>
      <point x="42" y="1500" type="line"/>
      <point x="632" y="1500" type="line" smooth="yes"/>
      <point x="994" y="1500"/>
      <point x="1153" y="1338"/>
      <point x="1153" y="1078" type="curve" smooth="yes"/>
      <point x="1153" y="818"/>
      <point x="994" y="671"/>
    </contour>
  </outline>
</glyph>
<glyph name="Q" format="2">
  <advance width="1458"/>
  <unicode hex="0051"/>
  <outline>
    <contour>
      <point x="730" y="-20" type="curve" smooth="yes"/>
      <point x="324" y="-20"/>
      <point x="89" y="324"/>
      <point x="89" y="750" type="curve" smooth="yes"/>
      <point x="89" y="1176"/>
      <point x="344" y="1520"/>
      <point x="730" y="1520" type="curve" smooth="yes"/>
      <point x="1116" y="1520"/>
      <point x="1370" y="1176"/>
      <point x="1370" y="750" type="curve" smooth="yes"/>
      <point x="1370" y="324"/>
      <point x="1136" y="-20"/>
    </contour>
    <contour>
      <point x="730" y="1508" type="curve" smooth="yes"/>
      <point x="402" y="1508"/>
      <point x="320" y="1114"/>
      <point x="320" y="750" type="curve" smooth="yes"/>
      <point x="320" y="386"/>
      <point x="382" y="-8"/>
      <point x="730" y="-8" type="curve" smooth="yes"/>
      <point x="1078" y="-8"/>
      <point x="1139" y="386"/>
      <point x="1139" y="750" type="curve" smooth="yes"/>
      <point x="1139" y="1114"/>
      <point x="1058" y="1508"/>
    </contour>
    <contour>
      <point x="1070" y="-488" type="curve"/>
      <point x="1070" y="-500" type="line"/>
      <point x="644" y="-500"/>
      <point x="610" y="-349"/>
      <point x="610" y="-3" type="curve"/>
      <point x="690" y="-20"/>
      <point x="759" y="-20"/>
      <point x="839" y="-3" type="curve"/>
      <point x="839" y="-367"/>
      <point x="864" y="-488"/>
    </contour>
  </outline>
</glyph>
<glyph name="R" format="2">
  <advance width="2873"/>
  <unicode hex="0052"/>
  <outline>
    <contour>
      <point x="1439" y="1565" type="curve" smooth="yes"/>
      <point x="825" y="1565" type="line"/>
      <point x="825" y="1584" type="line"/>
      <point x="1439" y="1584" type="line" smooth="yes"/>
      <point x="1832" y="1584"/>
      <point x="2053" y="1862"/>
      <point x="2053" y="2308" type="curve" smooth="yes"/>
      <point x="2053" y="2754"/>
      <point x="1832" y="3047"/>
      <point x="1439" y="3047" type="curve" smooth="yes"/>
      <point x="87" y="3047" type="line"/>
      <point x="87" y="3072" type="line"/>
      <point x="1439" y="3072" type="line" smooth="yes"/>
      <point x="2057" y="3072"/>
      <point x="2463" y="2840"/>
      <point x="2463" y="2308" type="curve" smooth="yes"/>
      <point x="2463" y="1776"/>
      <point x="2098" y="1565"/>
    </contour>
    <contour>
      <point x="87" y="25" type="line"/>
      <point x="1377" y="25" type="line"/>
      <point x="1377" y="0" type="line"/>
      <point x="87" y="0" type="line"/>
    </contour>
    <contour>
      <point x="537" y="3072" type="line"/>
      <point x="927" y="3072" type="line"/>
      <point x="927" y="0" type="line"/>
      <point x="537" y="0" type="line"/>
    </contour>
    <contour>
      <point x="2811" y="45" type="line"/>
      <point x="2745" y="8"/>
      <point x="2619" y="-20"/>
      <point x="2443" y="-20" type="curve" smooth="yes"/>
      <point x="1489" y="-20"/>
      <point x="2427" y="1558"/>
      <point x="1419" y="1558" type="curve" smooth="yes"/>
      <point x="825" y="1558" type="line"/>
      <point x="825" y="1576" type="line"/>
      <point x="1501" y="1576" type="line" smooth="yes"/>
      <point x="2896" y="1576"/>
      <point x="2085" y="17"/>
      <point x="2583" y="17" type="curve" smooth="yes"/>
      <point x="2669" y="17"/>
      <point x="2744" y="39"/>
      <point x="2801" y="66" type="curve"/>
    </contour>
  </outline>
</glyph>
<glyph name="S" format="2">
  <advance width="1124"/>
  <unicode hex="0053"/>
  <outline>
    <contour>
      <point x="972" y="1110" type="curve"/>
      <point x="959" y="1110" type="line"/>
      <point x="919" y="1382"/>
      <point x="760" y="1503"/>
      <point x="552" y="1503" type="curve" smooth="yes"/>
      <point x="360" y="1503"/>
      <point x="258" y="1401"/>
      <point x="258" y="1245" type="curve" smooth="yes"/>
      <point x="258" y="875"/>
      <point x="1048" y="957"/>
      <point x="1048" y="400" type="curve" smooth="yes"/>
      <point x="1048" y="140"/>
      <point x="870" y="-30"/>
      <point x="588" y="-30" type="curve" smooth="yes"/>
      <point x="278" y="-30"/>
      <point x="142" y="150"/>
      <point x="94" y="390" type="curve"/>
      <point x="105" y="390" type="line"/>
      <point x="150" y="157"/>
      <point x="287" y="-16"/>
      <point x="571" y="-16" type="curve" smooth="yes"/>
      <point x="783" y="-16"/>
      <point x="925" y="99"/>
      <point x="925" y="312" type="curve" smooth="yes"/>
      <point x="925" y="722"/>
      <point x="118" y="630"/>
      <point x="118" y="1150" type="curve" smooth="yes"/>
      <point x="118" y="1370"/>
      <point x="309" y="1520"/>
      <point x="532" y="1520" type="curve" smooth="yes"/>
      <point x="768" y="1520"/>
      <point x="932" y="1391"/>
    </contour>
    <contour>
      <point x="960" y="1520" type="line"/>
      <point x="972" y="1520" type="line"/>
      <point x="972" y="1110" type="line"/>
      <point x="950" y="1209"/>
      <point x="919" y="1305"/>
      <point x="853" y="1385" type="curve"/>
    </contour>
    <contour>
      <point x="104" y="-20" type="line"/>
      <point x="94" y="-20" type="line"/>
      <point x="94" y="390" type="line"/>
      <point x="128" y="270"/>
      <point x="156" y="202"/>
      <point x="212" y="128" type="curve"/>
    </contour>
  </outline>
</glyph>
<glyph name="T" format="2">
  <advance width="1282"/>
  <unicode hex="0054"/>
  <outline>
    <contour>
      <point x="327" y="12" type="line"/>
      <point x="957" y="12" type="line"/>
      <point x="957" y="0" type="line"/>
      <point x="327" y="0" type="line"/>
    </contour>
    <contour>
      <point x="546" y="1498" type="line"/>
      <point x="737" y="1498" type="line"/>
      <point x="737" y="0" type="line"/>
      <point x="546" y="0" type="line"/>
    </contour>
    <contour>
      <point x="936" y="1488" type="curve" smooth="yes"/>
      <point x="346" y="1488" type="line" smooth="yes"/>
      <point x="112" y="1488"/>
      <point x="55" y="1304"/>
      <point x="55" y="1050" type="curve"/>
      <point x="42" y="1050" type="line"/>
      <point x="42" y="1500" type="line"/>
      <point x="1241" y="1500" type="line"/>
      <point x="1241" y="1050" type="line"/>
      <point x="1228" y="1050" type="line"/>
      <point x="1228" y="1304"/>
      <point x="1170" y="1488"/>
    </contour>
  </outline>
</glyph>
<glyph name="U" format="2">
  <advance width="1406"/>
  <unicode hex="0055"/>
  <outline>
    <contour>
      <point x="968" y="1500" type="line"/>
      <point x="1363" y="1500" type="line"/>
      <point x="1363" y="1488" type="line"/>
      <point x="968" y="1488" type="line"/>
    </contour>
    <contour>
      <point x="41" y="1500" type="line"/>
      <point x="611" y="1500" type="line"/>
      <point x="611" y="1488" type="line"/>
      <point x="41" y="1488" type="line"/>
    </contour>
    <contour>
      <point x="1155" y="1500" type="line"/>
      <point x="1167" y="1500" type="line"/>
      <point x="1167" y="460" type="line" smooth="yes"/>
      <point x="1167" y="130"/>
      <point x="1037" y="-30"/>
      <point x="721" y="-30" type="curve" smooth="yes"/>
      <point x="375" y="-30"/>
      <point x="221" y="114"/>
      <point x="221" y="460" type="curve" smooth="yes"/>
      <point x="221" y="1500" type="line"/>
      <point x="411" y="1500" type="line"/>
      <point x="411" y="480" type="line" smooth="yes"/>
      <point x="411" y="216"/>
      <point x="473" y="-11"/>
      <point x="761" y="-11" type="curve" smooth="yes"/>
      <point x="1024" y="-11"/>
      <point x="1155" y="138"/>
      <point x="1155" y="460" type="curve" smooth="yes"/>
    </contour>
  </outline>
</glyph>
<glyph name="V" format="2">
  <advance width="3051"/>
  <unicode hex="0056"/>
  <outline>
    <contour>
      <point x="2965" y="3047" type="line"/>
      <point x="2053" y="3047" type="line"/>
      <point x="2053" y="3072" type="line"/>
      <point x="2965" y="3072" type="line"/>
    </contour>
    <contour>
      <point x="1275" y="3047" type="line"/>
      <point x="87" y="3047" type="line"/>
      <point x="87" y="3072" type="line"/>
      <point x="1275" y="3072" type="line"/>
    </contour>
    <contour>
      <point x="1660" y="495" type="line"/>
      <point x="2588" y="3072" type="line"/>
      <point x="2618" y="3072" type="line"/>
      <point x="1487" y="-61" type="line"/>
      <point x="1459" y="-61" type="line"/>
      <point x="373" y="3072" type="line"/>
      <point x="823" y="3072" type="line"/>
    </contour>
  </outline>
</glyph>
<glyph name="W" format="2">
  <advance width="1954"/>
  <unicode hex="0057"/>
  <outline>
    <contour>
      <point x="1051" y="949" type="line"/>
      <point x="688" y="-20" type="line"/>
      <point x="675" y="-20" type="line"/>
      <point x="204" y="1500" type="line"/>
      <point x="404" y="1500" type="line"/>
      <point x="785" y="279" type="line"/>
      <point x="1050" y="989" type="line"/>
    </contour>
    <contour>
      <point x="1091" y="949" type="line"/>
      <point x="1080" y="961" type="line"/>
      <point x="1260" y="1500" type="line"/>
      <point x="1275" y="1499" type="line"/>
    </contour>
    <contour>
      <point x="1929" y="1488" type="line"/>
      <point x="1531" y="1488" type="line"/>
      <point x="1531" y="1500" type="line"/>
      <point x="1929" y="1500" type="line"/>
    </contour>
    <contour>
      <point x="931" y="1500" type="line"/>
      <point x="1309" y="279" type="line"/>
      <point x="1748" y="1500" type="line"/>
      <point x="1763" y="1499" type="line"/>
      <point x="1216" y="-20" type="line"/>
      <point x="1203" y="-20" type="line"/>
      <point x="731" y="1500" type="line"/>
    </contour>
    <contour>
      <point x="1431" y="1488" type="line"/>
      <point x="26" y="1488" type="line"/>
      <point x="26" y="1500" type="line"/>
      <point x="1431" y="1500" type="line"/>
    </contour>
  </outline>
</glyph>
<glyph name="X" format="2">
  <advance width="1476"/>
  <unicode hex="0058"/>
  <outline>
    <contour>
      <point x="747" y="754" type="line"/>
      <point x="730" y="754" type="line"/>
      <point x="1161" y="1496" type="line"/>
      <point x="1176" y="1496" type="line"/>
    </contour>
    <contour>
      <point x="250" y="0" type="line"/>
      <point x="235" y="0" type="line"/>
      <point x="752" y="834" type="line"/>
      <point x="768" y="834" type="line"/>
    </contour>
    <contour>
      <point x="885" y="12" type="line"/>
      <point x="1449" y="12" type="line"/>
      <point x="1449" y="0" type="line"/>
      <point x="885" y="0" type="line"/>
    </contour>
    <contour>
      <point x="25" y="12" type="line"/>
      <point x="502" y="12" type="line"/>
      <point x="502" y="0" type="line"/>
      <point x="25" y="0" type="line"/>
    </contour>
    <contour>
      <point x="655" y="1488" type="line"/>
      <point x="94" y="1488" type="line"/>
      <point x="94" y="1500" type="line"/>
      <point x="655" y="1500" type="line"/>
    </contour>
    <contour>
      <point x="1338" y="1488" type="line"/>
      <point x="900" y="1488" type="line"/>
      <point x="900" y="1500" type="line"/>
      <point x="1338" y="1500" type="line"/>
    </contour>
    <contour>
      <point x="1320" y="0" type="line"/>
      <point x="1081" y="0" type="line"/>
      <point x="214" y="1500" type="line"/>
      <point x="447" y="1500" type="line"/>
    </contour>
  </outline>
</glyph>
<glyph name="Y" format="2">
  <advance width="1422"/>
  <unicode hex="0059"/>
  <outline>
    <contour>
      <point x="1395" y="1488" type="line"/>
      <point x="978" y="1488" type="line"/>
      <point x="978" y="1500" type="line"/>
      <point x="1395" y="1500" type="line"/>
    </contour>
    <contour>
      <point x="605" y="1488" type="line"/>
      <point x="25" y="1488" type="line"/>
      <point x="25" y="1500" type="line"/>
      <point x="605" y="1500" type="line"/>
    </contour>
    <contour>
      <point x="455" y="12" type="line"/>
      <point x="1025" y="12" type="line"/>
      <point x="1025" y="0" type="line"/>
      <point x="455" y="0" type="line"/>
    </contour>
    <contour>
      <point x="816" y="776" type="line"/>
      <point x="1213" y="1496" type="line"/>
      <point x="1228" y="1496" type="line"/>
      <point x="825" y="766" type="line"/>
      <point x="825" y="0" type="line"/>
      <point x="634" y="0" type="line"/>
      <point x="634" y="720" type="line"/>
      <point x="162" y="1500" type="line"/>
      <point x="382" y="1500" type="line"/>
    </contour>
  </outline>
</glyph>
<glyph name="Z" format="2">
  <advance width="1109"/>
  <unicode hex="005A"/>
  <outline>
    <contour>
      <point x="75" y="1500" type="line"/>
      <point x="1034" y="1500" type="line"/>
      <point x="1034" y="1488" type="line"/>
      <point x="244" y="12" type="line"/>
      <point x="688" y="12" type="line" smooth="yes"/>
      <point x="962" y="12"/>
      <point x="1039" y="126"/>
      <point x="1039" y="380" type="curve"/>
      <point x="1051" y="380" type="line"/>
      <point x="1051" y="0" type="line"/>
      <point x="34" y="0" type="line"/>
      <point x="34" y="12" type="line"/>
      <point x="824" y="1488" type="line"/>
      <point x="438" y="1488" type="line" smooth="yes"/>
      <point x="164" y="1488"/>
      <point x="87" y="1374"/>
      <point x="87" y="1160" type="curve"/>
      <point x="75" y="1160" type="line"/>
    </contour>
  </outline>
</glyph>
<glyph name="bracketleft" format="2">
  <advance width="649"/>
  <unicode hex="005B"/>
  <outline>
    <contour>
      <point x="590" y="-300" type="line"/>
      <point x="110" y="-300" type="line"/>
      <point x="110" y="-288" type="line"/>
      <point x="590" y="-288" type="line"/>
    </contour>
    <contour>
      <point x="590" y="1547" type="line"/>
      <point x="110" y="1547" type="line"/>
      <point x="110" y="1560" type="line"/>
      <point x="590" y="1560" type="line"/>
    </contour>
    <contour>
      <point x="290" y="1560" type="line"/>
      <point x="290" y="-300" type="line"/>
      <point x="110" y="-300" type="line"/>
      <point x="110" y="1560" type="line"/>
    </contour>
  </outline>
</glyph>
<glyph name="backslash" format="2">
  <advance width="1042"/>
  <unicode hex="005C"/>
  <outline>
    <contour>
      <point x="93" y="1560" type="line"/>
      <point x="964" y="-300" type="line"/>
      <point x="951" y="-300" type="line"/>
      <point x="80" y="1560" type="line"/>
    </contour>
  </outline>
</glyph>
<glyph name="asciicircum" format="2">
  <advance width="1089"/>
  <unicode hex="005E"/>
  <outline>
    <contour>
      <point x="544" y="1446" type="line"/>
      <point x="208" y="1253" type="line"/>
      <point x="200" y="1260" type="line"/>
      <point x="480" y="1540" type="line"/>
      <point x="610" y="1540" type="line"/>
      <point x="890" y="1260" type="line"/>
      <point x="881" y="1253" type="line"/>
    </contour>
  </outline>
</glyph>
<glyph name="grave" format="2">
  <advance width="789"/>
  <unicode hex="0060"/>
  <outline>
    <contour>
      <point x="180" y="1442" type="line" smooth="yes"/>
      <point x="142" y="1442"/>
      <point x="110" y="1472"/>
      <point x="110" y="1510" type="curve" smooth="yes"/>
      <point x="110" y="1548"/>
      <point x="144" y="1591"/>
      <point x="200" y="1576" type="curve" smooth="yes"/>
      <point x="673" y="1446" type="line"/>
      <point x="669" y="1435" type="line"/>
    </contour>
  </outline>
</glyph>
<glyph name="a" format="2">
  <advance width="1085"/>
  <unicode hex="0061"/>
  <outline>
    <contour>
      <point x="1061" y="116" type="line"/>
      <point x="1016" y="25"/>
      <point x="935" y="-20"/>
      <point x="850" y="-20" type="curve" smooth="yes"/>
      <point x="756" y="-20"/>
      <point x="668" y="13"/>
      <point x="668" y="148" type="curve" smooth="yes"/>
      <point x="668" y="610" type="line" smooth="yes"/>
      <point x="668" y="745"/>
      <point x="651" y="918"/>
      <point x="491" y="918" type="curve" smooth="yes"/>
      <point x="372" y="918"/>
      <point x="273" y="873"/>
      <point x="231" y="827" type="curve"/>
      <point x="337" y="863"/>
      <point x="395" y="798"/>
      <point x="395" y="736" type="curve" smooth="yes"/>
      <point x="395" y="656"/>
      <point x="327" y="622"/>
      <point x="277" y="622" type="curve" smooth="yes"/>
      <point x="217" y="622"/>
      <point x="173" y="660"/>
      <point x="173" y="732" type="curve" smooth="yes"/>
      <point x="173" y="856"/>
      <point x="348" y="936"/>
      <point x="530" y="936" type="curve" smooth="yes"/>
      <point x="827" y="936"/>
      <point x="848" y="772"/>
      <point x="848" y="610" type="curve" smooth="yes"/>
      <point x="848" y="89" type="line" smooth="yes"/>
      <point x="848" y="40"/>
      <point x="870" y="11"/>
      <point x="917" y="11" type="curve" smooth="yes"/>
      <point x="952" y="11"/>
      <point x="1013" y="48"/>
      <point x="1050" y="122" type="curve"/>
    </contour>
    <contour>
      <point x="542" y="507" type="curve" smooth="yes"/>
      <point x="771" y="507" type="line"/>
      <point x="771" y="495" type="line"/>
      <point x="542" y="495" type="line" smooth="yes"/>
      <point x="387" y="495"/>
      <point x="306" y="373"/>
      <point x="306" y="234" type="curve" smooth="yes"/>
      <point x="306" y="105"/>
      <point x="355" y="12"/>
      <point x="446" y="12" type="curve" smooth="yes"/>
      <point x="564" y="12"/>
      <point x="668" y="111"/>
      <point x="668" y="363" type="curve"/>
      <point x="679" y="363" type="line"/>
      <point x="679" y="117"/>
      <point x="594" y="-20"/>
      <point x="375" y="-20" type="curve" smooth="yes"/>
      <point x="215" y="-20"/>
      <point x="103" y="77"/>
      <point x="103" y="226" type="curve" smooth="yes"/>
      <point x="103" y="395"/>
      <point x="241" y="507"/>
    </contour>
  </outline>
</glyph>
<glyph name="c" format="2">
  <advance width="1015"/>
  <unicode hex="0063"/>
  <outline>
    <contour>
      <point x="876" y="731" type="curve"/>
      <point x="849" y="852"/>
      <point x="725" y="925"/>
      <point x="583" y="925" type="curve" smooth="yes"/>
      <point x="346" y="925"/>
      <point x="307" y="648"/>
      <point x="307" y="460" type="curve" smooth="yes"/>
      <point x="307" y="232"/>
      <point x="351" y="-3"/>
      <point x="566" y="-3" type="curve" smooth="yes"/>
      <point x="743" y="-3"/>
      <point x="846" y="116"/>
      <point x="900" y="280" type="curve"/>
      <point x="912" y="280" type="line"/>
      <point x="860" y="109"/>
      <point x="755" y="-20"/>
      <point x="553" y="-20" type="curve" smooth="yes"/>
      <point x="291" y="-20"/>
      <point x="97" y="160"/>
      <point x="97" y="460" type="curve" smooth="yes"/>
      <point x="97" y="720"/>
      <point x="262" y="940"/>
      <point x="564" y="940" type="curve" smooth="yes"/>
      <point x="768" y="940"/>
      <point x="896" y="826"/>
      <point x="896" y="687" type="curve" smooth="yes"/>
      <point x="896" y="606"/>
      <point x="842" y="563"/>
      <point x="782" y="563" type="curve" smooth="yes"/>
      <point x="732" y="563"/>
      <point x="668" y="596"/>
      <point x="668" y="676" type="curve" smooth="yes"/>
      <point x="668" y="745"/>
      <point x="723" y="783"/>
      <point x="778" y="783" type="curve" smooth="yes"/>
      <point x="825" y="783"/>
      <point x="869" y="754"/>
    </contour>
  </outline>
</glyph>
<glyph name="e" format="2">
  <advance width="1052"/>
  <unicode hex="0065"/>
  <outline>
    <contour>
      <point x="230" y="521" type="line"/>
      <point x="230" y="534" type="line"/>
      <point x="750" y="534" type="line"/>
      <point x="751" y="685"/>
      <point x="727" y="927"/>
      <point x="552" y="927" type="curve" smooth="yes"/>
      <point x="355" y="927"/>
      <point x="306" y="688"/>
      <point x="306" y="460" type="curve" smooth="yes"/>
      <point x="306" y="232"/>
      <point x="358" y="-5"/>
      <point x="573" y="-5" type="curve" smooth="yes"/>
      <point x="774" y="-5"/>
      <point x="904" y="120"/>
      <point x="954" y="280" type="curve"/>
      <point x="967" y="280" type="line"/>
      <point x="915" y="109"/>
      <point x="781" y="-20"/>
      <point x="560" y="-20" type="curve" smooth="yes"/>
      <point x="300" y="-20"/>
      <point x="97" y="160"/>
      <point x="97" y="460" type="curve" smooth="yes"/>
      <point x="97" y="760"/>
      <point x="291" y="940"/>
      <point x="552" y="940" type="curve" smooth="yes"/>
      <point x="848" y="940"/>
      <point x="962" y="739"/>
      <point x="962" y="521" type="curve"/>
    </contour>
  </outline>
</glyph>
<glyph name="f" format="2">
  <advance width="756"/>
  <unicode hex="0066"/>
  <outline>
    <contour>
      <point x="57" y="12" type="line"/>
      <point x="621" y="12" type="line"/>
      <point x="621" y="0" type="line"/>
      <point x="57" y="0" type="line"/>
    </contour>
    <contour>
      <point x="57" y="920" type="line"/>
      <point x="661" y="920" type="line"/>
      <point x="661" y="908" type="line"/>
      <point x="57" y="908" type="line"/>
    </contour>
    <contour>
      <point x="843" y="1350" type="curve"/>
      <point x="829" y="1425"/>
      <point x="758" y="1507"/>
      <point x="613" y="1507" type="curve" smooth="yes"/>
      <point x="453" y="1507"/>
      <point x="399" y="1334"/>
      <point x="399" y="1080" type="curve" smooth="yes"/>
      <point x="399" y="0" type="line"/>
      <point x="219" y="0" type="line"/>
      <point x="219" y="1024" type="line" smooth="yes"/>
      <point x="219" y="1286"/>
      <point x="353" y="1520"/>
      <point x="613" y="1520" type="curve" smooth="yes"/>
      <point x="775" y="1520"/>
      <point x="859" y="1416"/>
      <point x="859" y="1322" type="curve" smooth="yes"/>
      <point x="859" y="1240"/>
      <point x="805" y="1198"/>
      <point x="745" y="1198" type="curve" smooth="yes"/>
      <point x="695" y="1198"/>
      <point x="632" y="1232"/>
      <point x="632" y="1309" type="curve" smooth="yes"/>
      <point x="632" y="1385"/>
      <point x="688" y="1417"/>
      <point x="745" y="1417" type="curve" smooth="yes"/>
      <point x="788" y="1417"/>
      <point x="826" y="1394"/>
    </contour>
  </outline>
</glyph>
<glyph name="g" format="2">
  <advance width="1167"/>
  <unicode hex="0067"/>
  <outline>
    <contour>
      <point x="130" y="148" type="curve" smooth="yes"/>
      <point x="130" y="296"/>
      <point x="325" y="344"/>
      <point x="480" y="344" type="curve"/>
      <point x="479" y="334" type="line"/>
      <point x="393" y="334"/>
      <point x="267" y="297"/>
      <point x="267" y="212" type="curve" smooth="yes"/>
      <point x="267" y="138"/>
      <point x="350" y="138"/>
      <point x="460" y="138" type="curve" smooth="yes"/>
      <point x="530" y="138"/>
      <point x="553" y="140"/>
      <point x="609" y="140" type="curve" smooth="yes"/>
      <point x="759" y="140"/>
      <point x="928" y="108"/>
      <point x="928" y="-164" type="curve" smooth="yes"/>
      <point x="928" y="-409"/>
      <point x="720" y="-520"/>
      <point x="499" y="-520" type="curve" smooth="yes"/>
      <point x="270" y="-520"/>
      <point x="66" y="-440"/>
      <point x="66" y="-250" type="curve" smooth="yes"/>
      <point x="66" y="-68"/>
      <point x="264" y="-13"/>
      <point x="354" y="-13" type="curve" smooth="yes"/>
      <point x="360" y="-13" type="line"/>
      <point x="270" y="-61"/>
      <point x="254" y="-138"/>
      <point x="254" y="-207" type="curve" smooth="yes"/>
      <point x="254" y="-342"/>
      <point x="328" y="-505"/>
      <point x="521" y="-505" type="curve" smooth="yes"/>
      <point x="724" y="-505"/>
      <point x="896" y="-392"/>
      <point x="896" y="-211" type="curve" smooth="yes"/>
      <point x="896" y="-67"/>
      <point x="753" y="-18"/>
      <point x="623" y="-18" type="curve" smooth="yes"/>
      <point x="581" y="-18"/>
      <point x="473" y="-18"/>
      <point x="429" y="-18" type="curve" smooth="yes"/>
      <point x="249" y="-18"/>
      <point x="130" y="24"/>
    </contour>
    <contour>
      <point x="306" y="630" type="curve" smooth="yes"/>
      <point x="306" y="482"/>
      <point x="317" y="344"/>
      <point x="475" y="344" type="curve" smooth="yes"/>
      <point x="593" y="344"/>
      <point x="644" y="482"/>
      <point x="644" y="630" type="curve" smooth="yes"/>
      <point x="644" y="778"/>
      <point x="593" y="927"/>
      <point x="475" y="927" type="curve" smooth="yes"/>
      <point x="357" y="927"/>
      <point x="306" y="778"/>
    </contour>
    <contour>
      <point x="116" y="630" type="curve" smooth="yes"/>
      <point x="116" y="850"/>
      <point x="313" y="940"/>
      <point x="475" y="940" type="curve" smooth="yes"/>
      <point x="637" y="940"/>
      <point x="831" y="850"/>
      <point x="831" y="630" type="curve" smooth="yes"/>
      <point x="831" y="410"/>
      <point x="637" y="333"/>
      <point x="475" y="333" type="curve" smooth="yes"/>
      <point x="313" y="333"/>
      <point x="116" y="410"/>
    </contour>
    <contour>
      <point x="1099" y="807" type="curve"/>
      <point x="1093" y="865"/>
      <point x="1043" y="918"/>
      <point x="953" y="918" type="curve" smooth="yes"/>
      <point x="871" y="918"/>
      <point x="752" y="863"/>
      <point x="712" y="691" type="curve"/>
      <point x="701" y="696" type="line"/>
      <point x="741" y="876"/>
      <point x="873" y="930"/>
      <point x="953" y="930" type="curve" smooth="yes"/>
      <point x="1054" y="930"/>
      <point x="1113" y="863"/>
      <point x="1113" y="787" type="curve" smooth="yes"/>
      <point x="1113" y="698"/>
      <point x="1061" y="668"/>
      <point x="1011" y="668" type="curve" smooth="yes"/>
      <point x="961" y="668"/>
      <point x="911" y="702"/>
      <point x="911" y="768" type="curve" smooth="yes"/>
      <point x="911" y="823"/>
      <point x="956" y="860"/>
      <point x="1009" y="860" type="curve" smooth="yes"/>
      <point x="1048" y="860"/>
      <point x="1090" y="840"/>
    </contour>
  </outline>
</glyph>
<glyph name="h" format="2">
  <advance width="1165"/>
  <unicode hex="0068"/>
  <outline>
    <contour>
      <point x="798" y="615" type="line" smooth="yes"/>
      <point x="798" y="783"/>
      <point x="786" y="923"/>
      <point x="674" y="923" type="curve" smooth="yes"/>
      <point x="413" y="923"/>
      <point x="369" y="621"/>
      <point x="369" y="447" type="curve"/>
      <point x="359" y="438" type="line"/>
      <point x="359" y="626"/>
      <point x="391" y="940"/>
      <point x="695" y="940" type="curve" smooth="yes"/>
      <point x="928" y="940"/>
      <point x="978" y="812"/>
      <point x="978" y="638" type="curve" smooth="yes"/>
      <point x="978" y="0" type="line"/>
      <point x="798" y="0" type="line"/>
    </contour>
    <contour>
      <point x="677" y="12" type="line"/>
      <point x="1101" y="12" type="line"/>
      <point x="1101" y="0" type="line"/>
      <point x="677" y="0" type="line"/>
    </contour>
    <contour>
      <point x="66" y="12" type="line"/>
      <point x="491" y="12" type="line"/>
      <point x="491" y="0" type="line"/>
      <point x="66" y="0" type="line"/>
    </contour>
    <contour>
      <point x="189" y="1488" type="line"/>
      <point x="66" y="1488" type="line"/>
      <point x="66" y="1500" type="line"/>
      <point x="369" y="1500" type="line"/>
      <point x="369" y="0" type="line"/>
      <point x="189" y="0" type="line"/>
    </contour>
  </outline>
</glyph>
<glyph name="i" format="2">
  <advance width="576"/>
  <unicode hex="0069"/>
  <outline>
    <contour>
      <point x="76" y="12" type="line"/>
      <point x="501" y="12" type="line"/>
      <point x="501" y="0" type="line"/>
      <point x="76" y="0" type="line"/>
    </contour>
    <contour>
      <point x="149" y="1400" type="curve" smooth="yes"/>
      <point x="149" y="1466"/>
      <point x="203" y="1520"/>
      <point x="269" y="1520" type="curve" smooth="yes"/>
      <point x="335" y="1520"/>
      <point x="389" y="1466"/>
      <point x="389" y="1400" type="curve" smooth="yes"/>
      <point x="389" y="1334"/>
      <point x="335" y="1280"/>
      <point x="269" y="1280" type="curve" smooth="yes"/>
      <point x="203" y="1280"/>
      <point x="149" y="1334"/>
    </contour>
    <contour>
      <point x="199" y="908" type="line"/>
      <point x="76" y="908" type="line"/>
      <point x="76" y="920" type="line"/>
      <point x="378" y="920" type="line"/>
      <point x="378" y="0" type="line"/>
      <point x="199" y="0" type="line"/>
    </contour>
  </outline>
</glyph>
<glyph name="j" format="2">
  <advance width="587"/>
  <unicode hex="006A"/>
  <outline>
    <contour>
      <point x="183" y="1400" type="curve" smooth="yes"/>
      <point x="183" y="1466"/>
      <point x="237" y="1520"/>
      <point x="303" y="1520" type="curve" smooth="yes"/>
      <point x="369" y="1520"/>
      <point x="422" y="1466"/>
      <point x="422" y="1400" type="curve" smooth="yes"/>
      <point x="422" y="1334"/>
      <point x="369" y="1280"/>
      <point x="303" y="1280" type="curve" smooth="yes"/>
      <point x="237" y="1280"/>
      <point x="183" y="1334"/>
    </contour>
    <contour>
      <point x="409" y="920" type="line"/>
      <point x="409" y="-24" type="line" smooth="yes"/>
      <point x="409" y="-286"/>
      <point x="355" y="-520"/>
      <point x="95" y="-520" type="curve" smooth="yes"/>
      <point x="-67" y="-520"/>
      <point x="-151" y="-416"/>
      <point x="-151" y="-302" type="curve" smooth="yes"/>
      <point x="-151" y="-220"/>
      <point x="-98" y="-178"/>
      <point x="-38" y="-178" type="curve" smooth="yes"/>
      <point x="12" y="-178"/>
      <point x="75" y="-206"/>
      <point x="75" y="-286" type="curve" smooth="yes"/>
      <point x="75" y="-363"/>
      <point x="21" y="-398"/>
      <point x="-47" y="-398" type="curve" smooth="yes"/>
      <point x="-86" y="-398"/>
      <point x="-126" y="-365"/>
      <point x="-135" y="-332" type="curve"/>
      <point x="-130" y="-417"/>
      <point x="-48" y="-506"/>
      <point x="84" y="-506" type="curve" smooth="yes"/>
      <point x="264" y="-506"/>
      <point x="229" y="-214"/>
      <point x="229" y="40" type="curve" smooth="yes"/>
      <point x="229" y="908" type="line"/>
      <point x="66" y="908" type="line"/>
      <point x="66" y="920" type="line"/>
    </contour>
  </outline>
</glyph>
<glyph name="k" format="2">
  <advance width="1186"/>
  <unicode hex="006B"/>
  <outline>
    <contour>
      <point x="1065" y="0" type="line"/>
      <point x="840" y="0" type="line"/>
      <point x="394" y="523" type="line"/>
      <point x="897" y="920" type="line"/>
      <point x="914" y="920" type="line"/>
      <point x="537" y="620" type="line"/>
    </contour>
    <contour>
      <point x="685" y="12" type="line"/>
      <point x="1141" y="12" type="line"/>
      <point x="1141" y="0" type="line"/>
      <point x="685" y="0" type="line"/>
    </contour>
    <contour>
      <point x="1073" y="908" type="line"/>
      <point x="662" y="908" type="line"/>
      <point x="662" y="920" type="line"/>
      <point x="1073" y="920" type="line"/>
    </contour>
    <contour>
      <point x="66" y="12" type="line"/>
      <point x="548" y="12" type="line"/>
      <point x="548" y="0" type="line"/>
      <point x="66" y="0" type="line"/>
    </contour>
    <contour>
      <point x="229" y="1488" type="line"/>
      <point x="66" y="1488" type="line"/>
      <point x="66" y="1500" type="line"/>
      <point x="409" y="1500" type="line"/>
      <point x="409" y="0" type="line"/>
      <point x="229" y="0" type="line"/>
    </contour>
  </outline>
</glyph>
<glyph name="l" format="2">
  <advance width="636"/>
  <unicode hex="006C"/>
  <outline>
    <contour>
      <point x="66" y="12" type="line"/>
      <point x="571" y="12" type="line"/>
      <point x="571" y="0" type="line"/>
      <point x="66" y="0" type="line"/>
    </contour>
    <contour>
      <point x="229" y="1488" type="line"/>
      <point x="66" y="1488" type="line"/>
      <point x="66" y="1500" type="line"/>
      <point x="409" y="1500" type="line"/>
      <point x="409" y="0" type="line"/>
      <point x="229" y="0" type="line"/>
    </contour>
  </outline>
</glyph>
<glyph name="m" format="2">
  <advance width="3472"/>
  <unicode hex="006D"/>
  <outline>
    <contour>
      <point x="1921" y="1307" type="curve" smooth="yes"/>
      <point x="1921" y="0" type="line"/>
      <point x="1555" y="0" type="line"/>
      <point x="1555" y="1262" type="line" smooth="yes"/>
      <point x="1555" y="1606"/>
      <point x="1550" y="1888"/>
      <point x="1323" y="1888" type="curve" smooth="yes"/>
      <point x="855" y="1888"/>
      <point x="753" y="1274"/>
      <point x="753" y="919" type="curve"/>
      <point x="733" y="902" type="line"/>
      <point x="733" y="1286"/>
      <point x="810" y="1925"/>
      <point x="1369" y="1925" type="curve" smooth="yes"/>
      <point x="1794" y="1925"/>
      <point x="1921" y="1663"/>
    </contour>
    <contour>
      <point x="136" y="25" type="line"/>
      <point x="1004" y="25" type="line"/>
      <point x="1004" y="0" type="line"/>
      <point x="136" y="0" type="line"/>
    </contour>
    <contour>
      <point x="1304" y="25" type="line"/>
      <point x="2172" y="25" type="line"/>
      <point x="2172" y="0" type="line"/>
      <point x="1304" y="0" type="line"/>
    </contour>
    <contour>
      <point x="2470" y="25" type="line"/>
      <point x="3338" y="25" type="line"/>
      <point x="3338" y="0" type="line"/>
      <point x="2470" y="0" type="line"/>
    </contour>
    <contour>
      <point x="387" y="1859" type="line"/>
      <point x="136" y="1859" type="line"/>
      <point x="136" y="1884" type="line"/>
      <point x="753" y="1884" type="line"/>
      <point x="753" y="0" type="line"/>
      <point x="387" y="0" type="line"/>
    </contour>
    <contour>
      <point x="3088" y="1307" type="curve" smooth="yes"/>
      <point x="3088" y="0" type="line"/>
      <point x="2721" y="0" type="line"/>
      <point x="2721" y="1262" type="line" smooth="yes"/>
      <point x="2721" y="1606"/>
      <point x="2714" y="1888"/>
      <point x="2487" y="1888" type="curve" smooth="yes"/>
      <point x="2016" y="1888"/>
      <point x="1921" y="1274"/>
      <point x="1921" y="919" type="curve"/>
      <point x="1899" y="902" type="line"/>
      <point x="1899" y="1286"/>
      <point x="1971" y="1925"/>
      <point x="2532" y="1925" type="curve" smooth="yes"/>
      <point x="2957" y="1925"/>
      <point x="3088" y="1663"/>
    </contour>
  </outline>
</glyph>
<glyph name="o" format="2">
  <advance width="1108"/>
  <unicode hex="006F"/>
  <outline>
    <contour>
      <point x="306" y="460" type="curve" smooth="yes"/>
      <point x="306" y="272"/>
      <point x="338" y="-7"/>
      <point x="555" y="-7" type="curve" smooth="yes"/>
      <point x="772" y="-7"/>
      <point x="804" y="272"/>
      <point x="804" y="460" type="curve" smooth="yes"/>
      <point x="804" y="648"/>
      <point x="772" y="927"/>
      <point x="555" y="927" type="curve" smooth="yes"/>
      <point x="338" y="927"/>
      <point x="306" y="648"/>
    </contour>
    <contour>
      <point x="97" y="460" type="curve" smooth="yes"/>
      <point x="97" y="720"/>
      <point x="273" y="940"/>
      <point x="555" y="940" type="curve" smooth="yes"/>
      <point x="837" y="940"/>
      <point x="1013" y="720"/>
      <point x="1013" y="460" type="curve" smooth="yes"/>
      <point x="1013" y="200"/>
      <point x="837" y="-20"/>
      <point x="555" y="-20" type="curve" smooth="yes"/>
      <point x="273" y="-20"/>
      <point x="97" y="200"/>
    </contour>
  </outline>
</glyph>
<glyph name="p" format="2">
  <advance width="1199"/>
  <unicode hex="0070"/>
  <outline>
    <contour>
      <point x="357" y="460" type="curve" smooth="yes"/>
      <point x="357" y="756"/>
      <point x="476" y="938"/>
      <point x="681" y="938" type="curve" smooth="yes"/>
      <point x="897" y="938"/>
      <point x="1104" y="760"/>
      <point x="1104" y="460" type="curve" smooth="yes"/>
      <point x="1104" y="160"/>
      <point x="897" y="-20"/>
      <point x="681" y="-20" type="curve" smooth="yes"/>
      <point x="476" y="-20"/>
      <point x="357" y="164"/>
    </contour>
    <contour>
      <point x="369" y="460" type="curve" smooth="yes"/>
      <point x="369" y="161"/>
      <point x="496" y="3"/>
      <point x="651" y="3" type="curve" smooth="yes"/>
      <point x="816" y="3"/>
      <point x="895" y="192"/>
      <point x="895" y="460" type="curve" smooth="yes"/>
      <point x="895" y="728"/>
      <point x="816" y="915"/>
      <point x="651" y="915" type="curve" smooth="yes"/>
      <point x="496" y="915"/>
      <point x="369" y="759"/>
    </contour>
    <contour>
      <point x="66" y="-488" type="line"/>
      <point x="491" y="-488" type="line"/>
      <point x="491" y="-500" type="line"/>
      <point x="66" y="-500" type="line"/>
    </contour>
    <contour>
      <point x="189" y="908" type="line"/>
      <point x="66" y="908" type="line"/>
      <point x="66" y="920" type="line"/>
      <point x="369" y="920" type="line"/>
      <point x="369" y="-500" type="line"/>
      <point x="189" y="-500" type="line"/>
    </contour>
  </outline>
</glyph>
<glyph name="q" format="2">
  <advance width="1199"/>
  <unicode hex="0071"/>
  <outline>
    <contour>
      <point x="843" y="459" type="curve" smooth="yes"/>
      <point x="843" y="163"/>
      <point x="725" y="-18"/>
      <point x="520" y="-18" type="curve" smooth="yes"/>
      <point x="304" y="-18"/>
      <point x="97" y="159"/>
      <point x="97" y="459" type="curve" smooth="yes"/>
      <point x="97" y="759"/>
      <point x="304" y="940"/>
      <point x="520" y="940" type="curve" smooth="yes"/>
      <point x="725" y="940"/>
      <point x="843" y="755"/>
    </contour>
    <contour>
      <point x="831" y="459" type="curve" smooth="yes"/>
      <point x="831" y="758"/>
      <point x="704" y="916"/>
      <point x="549" y="916" type="curve" smooth="yes"/>
      <point x="384" y="916"/>
      <point x="306" y="727"/>
      <point x="306" y="459" type="curve" smooth="yes"/>
      <point x="306" y="191"/>
      <point x="384" y="5"/>
      <point x="549" y="5" type="curve" smooth="yes"/>
      <point x="704" y="5"/>
      <point x="831" y="160"/>
    </contour>
    <contour>
      <point x="1134" y="-488" type="line"/>
      <point x="1134" y="-500" type="line"/>
      <point x="708" y="-500" type="line"/>
      <point x="708" y="-488" type="line"/>
    </contour>
    <contour>
      <point x="1134" y="920" type="line"/>
      <point x="1134" y="908" type="line"/>
      <point x="1012" y="908" type="line"/>
      <point x="1012" y="-500" type="line"/>
      <point x="831" y="-500" type="line"/>
      <point x="831" y="920" type="line"/>
    </contour>
  </outline>
</glyph>
<glyph name="r" format="2">
  <advance width="855"/>
  <unicode hex="0072"/>
  <outline>
    <contour>
      <point x="782" y="833" type="curve"/>
      <point x="755" y="897"/>
      <point x="686" y="927"/>
      <point x="624" y="927" type="curve" smooth="yes"/>
      <point x="416" y="927"/>
      <point x="368" y="672"/>
      <point x="368" y="442" type="curve"/>
      <point x="357" y="442" type="line"/>
      <point x="357" y="683"/>
      <point x="405" y="940"/>
      <point x="624" y="940" type="curve" smooth="yes"/>
      <point x="718" y="940"/>
      <point x="806" y="875"/>
      <point x="806" y="781" type="curve" smooth="yes"/>
      <point x="806" y="713"/>
      <point x="765" y="659"/>
      <point x="690" y="659" type="curve" smooth="yes"/>
      <point x="624" y="659"/>
      <point x="573" y="694"/>
      <point x="573" y="767" type="curve" smooth="yes"/>
      <point x="573" y="873"/>
      <point x="719" y="921"/>
    </contour>
    <contour>
      <point x="66" y="12" type="line"/>
      <point x="493" y="12" type="line"/>
      <point x="493" y="0" type="line"/>
      <point x="66" y="0" type="line"/>
    </contour>
    <contour>
      <point x="189" y="908" type="line"/>
      <point x="66" y="908" type="line"/>
      <point x="66" y="920" type="line"/>
      <point x="368" y="920" type="line"/>
      <point x="368" y="0" type="line"/>
      <point x="189" y="0" type="line"/>
    </contour>
  </outline>
</glyph>
<glyph name="s" format="2">
  <advance width="885"/>
  <unicode hex="0073"/>
  <outline>
    <contour>
      <point x="701" y="763" type="curve"/>
      <point x="684" y="794"/>
      <point x="660" y="822"/>
      <point x="634" y="848" type="curve"/>
      <point x="725" y="940" type="line"/>
      <point x="736" y="940" type="line"/>
      <point x="736" y="660" type="line"/>
      <point x="728" y="660" type="line"/>
      <point x="726" y="697"/>
      <point x="717" y="730"/>
    </contour>
    <contour>
      <point x="735" y="660" type="curve"/>
      <point x="724" y="660" type="line"/>
      <point x="722" y="787"/>
      <point x="590" y="925"/>
      <point x="407" y="925" type="curve" smooth="yes"/>
      <point x="296" y="925"/>
      <point x="208" y="872"/>
      <point x="208" y="777" type="curve" smooth="yes"/>
      <point x="208" y="542"/>
      <point x="798" y="634"/>
      <point x="798" y="283" type="curve" smooth="yes"/>
      <point x="798" y="105"/>
      <point x="652" y="-20"/>
      <point x="459" y="-20" type="curve" smooth="yes"/>
      <point x="272" y="-20"/>
      <point x="113" y="107"/>
      <point x="103" y="263" type="curve"/>
      <point x="114" y="263" type="line"/>
      <point x="122" y="116"/>
      <point x="280" y="-5"/>
      <point x="448" y="-5" type="curve" smooth="yes"/>
      <point x="567" y="-5"/>
      <point x="688" y="43"/>
      <point x="688" y="179" type="curve" smooth="yes"/>
      <point x="688" y="432"/>
      <point x="126" y="304"/>
      <point x="126" y="671" type="curve" smooth="yes"/>
      <point x="126" y="799"/>
      <point x="215" y="938"/>
      <point x="405" y="938" type="curve" smooth="yes"/>
      <point x="600" y="938"/>
      <point x="735" y="792"/>
    </contour>
    <contour>
      <point x="113" y="-20" type="line"/>
      <point x="102" y="-20" type="line"/>
      <point x="102" y="263" type="line"/>
      <point x="112" y="263" type="line"/>
      <point x="112" y="215"/>
      <point x="129" y="176"/>
      <point x="144" y="152" type="curve"/>
      <point x="169" y="117"/>
      <point x="187" y="94"/>
      <point x="207" y="76" type="curve"/>
    </contour>
  </outline>
</glyph>
<glyph name="t" format="2">
  <advance width="676"/>
  <unicode hex="0074"/>
  <outline>
    <contour>
      <point x="46" y="920" type="line"/>
      <point x="583" y="920" type="line"/>
      <point x="583" y="908" type="line"/>
      <point x="46" y="908" type="line"/>
    </contour>
    <contour>
      <point x="643" y="195" type="line"/>
      <point x="594" y="72"/>
      <point x="497" y="-14"/>
      <point x="374" y="-14" type="curve" smooth="yes"/>
      <point x="210" y="-14"/>
      <point x="189" y="112"/>
      <point x="189" y="222" type="curve" smooth="yes"/>
      <point x="189" y="1120" type="line"/>
      <point x="249" y="1120"/>
      <point x="329" y="1150"/>
      <point x="369" y="1180" type="curve"/>
      <point x="369" y="151" type="line" smooth="yes"/>
      <point x="369" y="51"/>
      <point x="392" y="25"/>
      <point x="446" y="25" type="curve" smooth="yes"/>
      <point x="519" y="25"/>
      <point x="593" y="110"/>
      <point x="632" y="201" type="curve"/>
    </contour>
  </outline>
</glyph>
<glyph name="u" format="2">
  <advance width="1166"/>
  <unicode hex="0075"/>
  <outline>
    <contour>
      <point x="369" y="920" type="line"/>
      <point x="369" y="305" type="line" smooth="yes"/>
      <point x="369" y="137"/>
      <point x="381" y="-3"/>
      <point x="493" y="-3" type="curve" smooth="yes"/>
      <point x="754" y="-3"/>
      <point x="798" y="299"/>
      <point x="798" y="473" type="curve"/>
      <point x="809" y="481" type="line"/>
      <point x="809" y="293"/>
      <point x="776" y="-20"/>
      <point x="472" y="-20" type="curve" smooth="yes"/>
      <point x="239" y="-20"/>
      <point x="189" y="108"/>
      <point x="189" y="282" type="curve" smooth="yes"/>
      <point x="189" y="908" type="line"/>
      <point x="66" y="908" type="line"/>
      <point x="66" y="920" type="line"/>
    </contour>
    <contour>
      <point x="979" y="12" type="line"/>
      <point x="1102" y="12" type="line"/>
      <point x="1102" y="0" type="line"/>
      <point x="798" y="0" type="line"/>
      <point x="798" y="908" type="line"/>
      <point x="659" y="908" type="line"/>
      <point x="659" y="920" type="line"/>
      <point x="979" y="920" type="line"/>
    </contour>
  </outline>
</glyph>
<glyph name="v" format="2">
  <advance width="1101"/>
  <unicode hex="0076"/>
  <outline>
    <contour>
      <point x="1058" y="908" type="line"/>
      <point x="711" y="908" type="line"/>
      <point x="711" y="920" type="line"/>
      <point x="1058" y="920" type="line"/>
    </contour>
    <contour>
      <point x="508" y="908" type="line"/>
      <point x="26" y="908" type="line"/>
      <point x="26" y="920" type="line"/>
      <point x="508" y="920" type="line"/>
    </contour>
    <contour>
      <point x="609" y="205" type="line"/>
      <point x="905" y="920" type="line"/>
      <point x="920" y="920" type="line"/>
      <point x="532" y="-20" type="line"/>
      <point x="519" y="-20" type="line"/>
      <point x="133" y="920" type="line"/>
      <point x="333" y="920" type="line"/>
    </contour>
  </outline>
</glyph>
<glyph name="w" format="2">
  <advance width="1534"/>
  <unicode hex="0077"/>
  <outline>
    <contour>
      <point x="482" y="908" type="line"/>
      <point x="26" y="908" type="line"/>
      <point x="26" y="920" type="line"/>
      <point x="482" y="920" type="line"/>
    </contour>
    <contour>
      <point x="1491" y="908" type="line"/>
      <point x="1109" y="908" type="line"/>
      <point x="1109" y="920" type="line"/>
      <point x="1491" y="920" type="line"/>
    </contour>
    <contour>
      <point x="539" y="218" type="line"/>
      <point x="852" y="940" type="line"/>
      <point x="865" y="940" type="line"/>
      <point x="1083" y="253" type="line"/>
      <point x="1305" y="920" type="line"/>
      <point x="1320" y="920" type="line"/>
      <point x="1006" y="-20" type="line"/>
      <point x="994" y="-20" type="line"/>
      <point x="750" y="671" type="line"/>
      <point x="450" y="-20" type="line"/>
      <point x="438" y="-20" type="line"/>
      <point x="134" y="920" type="line"/>
      <point x="319" y="920" type="line"/>
    </contour>
  </outline>
</glyph>
<glyph name="x" format="2">
  <advance width="1124"/>
  <unicode hex="0078"/>
  <outline>
    <contour>
      <point x="670" y="12" type="line"/>
      <point x="1079" y="12" type="line"/>
      <point x="1079" y="0" type="line"/>
      <point x="670" y="0" type="line"/>
    </contour>
    <contour>
      <point x="46" y="12" type="line"/>
      <point x="392" y="12" type="line"/>
      <point x="392" y="0" type="line"/>
      <point x="46" y="0" type="line"/>
    </contour>
    <contour>
      <point x="523" y="908" type="line"/>
      <point x="66" y="908" type="line"/>
      <point x="66" y="920" type="line"/>
      <point x="523" y="920" type="line"/>
    </contour>
    <contour>
      <point x="1049" y="908" type="line"/>
      <point x="714" y="908" type="line"/>
      <point x="714" y="920" type="line"/>
      <point x="1049" y="920" type="line"/>
    </contour>
    <contour>
      <point x="1006" y="0" type="line"/>
      <point x="788" y="0" type="line"/>
      <point x="159" y="920" type="line"/>
      <point x="377" y="920" type="line"/>
    </contour>
    <contour>
      <point x="185" y="0" type="line"/>
      <point x="169" y="0" type="line"/>
      <point x="891" y="920" type="line"/>
      <point x="907" y="920" type="line"/>
    </contour>
  </outline>
</glyph>
<glyph name="y" format="2">
  <advance width="1101"/>
  <unicode hex="0079"/>
  <outline>
    <contour>
      <point x="470" y="908" type="line"/>
      <point x="26" y="908" type="line"/>
      <point x="26" y="920" type="line"/>
      <point x="470" y="920" type="line"/>
    </contour>
    <contour>
      <point x="1096" y="908" type="line"/>
      <point x="784" y="908" type="line"/>
      <point x="784" y="920" type="line"/>
      <point x="1096" y="920" type="line"/>
    </contour>
    <contour>
      <point x="667" y="189" type="line"/>
      <point x="572" y="-41" type="line"/>
      <point x="111" y="920" type="line"/>
      <point x="311" y="920" type="line"/>
    </contour>
    <contour>
      <point x="407" y="-419" type="curve"/>
      <point x="957" y="920" type="line"/>
      <point x="972" y="920" type="line"/>
      <point x="433" y="-396" type="line" smooth="yes"/>
      <point x="397" y="-479"/>
      <point x="367" y="-528"/>
      <point x="291" y="-528" type="curve" smooth="yes"/>
      <point x="241" y="-528"/>
      <point x="180" y="-496"/>
      <point x="180" y="-420" type="curve" smooth="yes"/>
      <point x="180" y="-354"/>
      <point x="225" y="-308"/>
      <point x="289" y="-308" type="curve" smooth="yes"/>
      <point x="350" y="-308"/>
      <point x="397" y="-351"/>
    </contour>
  </outline>
</glyph>
<glyph name="z" format="2">
  <advance width="929"/>
  <unicode hex="007A"/>
  <outline>
    <contour>
      <point x="412" y="908" type="line" smooth="yes"/>
      <point x="184" y="908"/>
      <point x="125" y="778"/>
      <point x="125" y="576" type="curve"/>
      <point x="112" y="576" type="line"/>
      <point x="112" y="920" type="line"/>
      <point x="831" y="920" type="line"/>
      <point x="831" y="908" type="line"/>
      <point x="271" y="12" type="line"/>
      <point x="518" y="12" type="line" smooth="yes"/>
      <point x="792" y="12"/>
      <point x="852" y="120"/>
      <point x="852" y="368" type="curve"/>
      <point x="863" y="368" type="line"/>
      <point x="863" y="0" type="line"/>
      <point x="57" y="0" type="line"/>
      <point x="57" y="12" type="line"/>
      <point x="615" y="908" type="line"/>
    </contour>
  </outline>
</glyph>
<glyph name="sterling" format="2">
  <advance width="1250"/>
  <unicode hex="00A3"/>
  <outline>
    <contour>
      <point x="1204" y="314" type="line"/>
      <point x="1204" y="24"/>
      <point x="1042" y="-60"/>
      <point x="864" y="-60" type="curve" smooth="yes"/>
      <point x="590" y="-60"/>
      <point x="500" y="60"/>
      <point x="374" y="60" type="curve" smooth="yes"/>
      <point x="292" y="60"/>
      <point x="178" y="20"/>
      <point x="158" y="-40" type="curve"/>
      <point x="150" y="-40" type="line"/>
      <point x="190" y="108"/>
      <point x="278" y="194"/>
      <point x="444" y="194" type="curve" smooth="yes"/>
      <point x="644" y="194"/>
      <point x="724" y="126"/>
      <point x="876" y="126" type="curve" smooth="yes"/>
      <point x="1002" y="126"/>
      <point x="1192" y="150"/>
      <point x="1192" y="314" type="curve"/>
    </contour>
    <contour>
      <point x="930" y="810" type="line"/>
      <point x="930" y="797" type="line"/>
      <point x="30" y="797" type="line"/>
      <point x="30" y="810" type="line"/>
    </contour>
    <contour>
      <point x="236" y="1100" type="curve" smooth="yes"/>
      <point x="236" y="1380"/>
      <point x="446" y="1520"/>
      <point x="768" y="1520" type="curve" smooth="yes"/>
      <point x="1092" y="1520"/>
      <point x="1224" y="1356"/>
      <point x="1224" y="1192" type="curve" smooth="yes"/>
      <point x="1224" y="1110"/>
      <point x="1166" y="1068"/>
      <point x="1106" y="1068" type="curve" smooth="yes"/>
      <point x="1056" y="1068"/>
      <point x="992" y="1100"/>
      <point x="992" y="1180" type="curve" smooth="yes"/>
      <point x="992" y="1250"/>
      <point x="1048" y="1290"/>
      <point x="1106" y="1290" type="curve" smooth="yes"/>
      <point x="1159" y="1290"/>
      <point x="1192" y="1249"/>
      <point x="1203" y="1229" type="curve"/>
      <point x="1203" y="1351"/>
      <point x="1078" y="1507"/>
      <point x="777" y="1507" type="curve" smooth="yes"/>
      <point x="499" y="1507"/>
      <point x="458" y="1268"/>
      <point x="458" y="1120" type="curve" smooth="yes"/>
      <point x="458" y="922"/>
      <point x="570" y="790"/>
      <point x="570" y="640" type="curve" smooth="yes"/>
      <point x="570" y="280"/>
      <point x="131" y="270"/>
      <point x="157" y="-40" type="curve"/>
      <point x="144" y="-40" type="line"/>
      <point x="106" y="238"/>
      <point x="398" y="394"/>
      <point x="398" y="522" type="curve" smooth="yes"/>
      <point x="398" y="750"/>
      <point x="236" y="870"/>
    </contour>
  </outline>
</glyph>
<glyph name="section" format="2">
  <advance width="893"/>
  <unicode hex="00A7"/>
  <outline>
    <contour>
      <point x="214" y="1295" type="curve" smooth="yes"/>
      <point x="214" y="1063"/>
      <point x="834" y="1076"/>
      <point x="834" y="770" type="curve" smooth="yes"/>
      <point x="834" y="646"/>
      <point x="710" y="584"/>
      <point x="602" y="512" type="curve"/>
      <point x="601" y="523" type="line"/>
      <point x="667" y="567"/>
      <point x="689" y="602"/>
      <point x="689" y="662" type="curve" smooth="yes"/>
      <point x="689" y="924"/>
      <point x="124" y="852"/>
      <point x="124" y="1216" type="curve" smooth="yes"/>
      <point x="124" y="1424"/>
      <point x="304" y="1520"/>
      <point x="454" y="1520" type="curve" smooth="yes"/>
      <point x="630" y="1520"/>
      <point x="802" y="1436"/>
      <point x="802" y="1224" type="curve" smooth="yes"/>
      <point x="802" y="1142"/>
      <point x="752" y="1080"/>
      <point x="682" y="1080" type="curve" smooth="yes"/>
      <point x="622" y="1080"/>
      <point x="574" y="1120"/>
      <point x="574" y="1192" type="curve" smooth="yes"/>
      <point x="574" y="1256"/>
      <point x="630" y="1302"/>
      <point x="688" y="1302" type="curve" smooth="yes"/>
      <point x="729" y="1302"/>
      <point x="774" y="1271"/>
      <point x="786" y="1243" type="curve"/>
      <point x="782" y="1424"/>
      <point x="625" y="1507"/>
      <point x="454" y="1507" type="curve" smooth="yes"/>
      <point x="317" y="1507"/>
      <point x="214" y="1417"/>
    </contour>
    <contour>
      <point x="818" y="324" type="curve" smooth="yes"/>
      <point x="818" y="116"/>
      <point x="658" y="-20"/>
      <point x="428" y="-20" type="curve" smooth="yes"/>
      <point x="252" y="-20"/>
      <point x="60" y="50"/>
      <point x="60" y="282" type="curve" smooth="yes"/>
      <point x="60" y="364"/>
      <point x="110" y="426"/>
      <point x="180" y="426" type="curve" smooth="yes"/>
      <point x="240" y="426"/>
      <point x="288" y="386"/>
      <point x="288" y="314" type="curve" smooth="yes"/>
      <point x="288" y="250"/>
      <point x="232" y="204"/>
      <point x="174" y="204" type="curve" smooth="yes"/>
      <point x="133" y="204"/>
      <point x="88" y="235"/>
      <point x="76" y="263" type="curve"/>
      <point x="84" y="61"/>
      <point x="262" y="-7"/>
      <point x="428" y="-7" type="curve" smooth="yes"/>
      <point x="634" y="-7"/>
      <point x="702" y="128"/>
      <point x="702" y="222" type="curve" smooth="yes"/>
      <point x="702" y="454"/>
      <point x="76" y="424"/>
      <point x="76" y="710" type="curve" smooth="yes"/>
      <point x="76" y="854"/>
      <point x="194" y="948"/>
      <point x="262" y="1000" type="curve"/>
      <point x="281" y="1000" type="line"/>
      <point x="247" y="976"/>
      <point x="226" y="940"/>
      <point x="226" y="860" type="curve" smooth="yes"/>
      <point x="226" y="598"/>
      <point x="818" y="688"/>
    </contour>
  </outline>
</glyph>
<glyph name="copyright" format="2">
  <advance width="1739"/>
  <unicode hex="00A9"/>
  <outline>
    <contour>
      <point x="100" y="750" type="curve" smooth="yes"/>
      <point x="100" y="1176"/>
      <point x="444" y="1520"/>
      <point x="870" y="1520" type="curve" smooth="yes"/>
      <point x="1296" y="1520"/>
      <point x="1640" y="1176"/>
      <point x="1640" y="750" type="curve" smooth="yes"/>
      <point x="1640" y="324"/>
      <point x="1296" y="-20"/>
      <point x="870" y="-20" type="curve" smooth="yes"/>
      <point x="444" y="-20"/>
      <point x="100" y="324"/>
    </contour>
    <contour>
      <point x="112" y="750" type="curve" smooth="yes"/>
      <point x="112" y="333"/>
      <point x="453" y="-7"/>
      <point x="870" y="-7" type="curve" smooth="yes"/>
      <point x="1287" y="-7"/>
      <point x="1627" y="333"/>
      <point x="1627" y="750" type="curve" smooth="yes"/>
      <point x="1627" y="1167"/>
      <point x="1287" y="1507"/>
      <point x="870" y="1507" type="curve" smooth="yes"/>
      <point x="453" y="1507"/>
      <point x="112" y="1167"/>
    </contour>
    <component base="C" xScale="0.6" yScale="0.6" xOffset="419" yOffset="300"/>
  </outline>
</glyph>
<glyph name="degree" format="2">
  <advance width="1310"/>
  <unicode hex="00B0"/>
  <outline>
    <contour>
      <point x="164" y="2785" type="curve" smooth="yes"/>
      <point x="164" y="3055"/>
      <point x="385" y="3277"/>
      <point x="655" y="3277" type="curve" smooth="yes"/>
      <point x="925" y="3277"/>
      <point x="1147" y="3055"/>
      <point x="1147" y="2785" type="curve" smooth="yes"/>
      <point x="1147" y="2515"/>
      <point x="925" y="2294"/>
      <point x="655" y="2294" type="curve" smooth="yes"/>
      <point x="385" y="2294"/>
      <point x="164" y="2515"/>
    </contour>
    <contour>
      <point x="263" y="2785" type="curve" smooth="yes"/>
      <point x="263" y="2561"/>
      <point x="431" y="2393"/>
      <point x="655" y="2393" type="curve" smooth="yes"/>
      <point x="879" y="2393"/>
      <point x="1047" y="2561"/>
      <point x="1047" y="2785" type="curve" smooth="yes"/>
      <point x="1047" y="3009"/>
      <point x="879" y="3177"/>
      <point x="655" y="3177" type="curve" smooth="yes"/>
      <point x="431" y="3177"/>
      <point x="263" y="3009"/>
    </contour>
  </outline>
</glyph>
<glyph name="acute" format="2">
  <advance width="1616"/>
  <unicode hex="00B4"/>
  <outline>
    <contour>
      <point x="1249" y="2953" type="curve" smooth="yes"/>
      <point x="247" y="2939" type="line"/>
      <point x="239" y="2961" type="line"/>
      <point x="1208" y="3228" type="line" smooth="yes"/>
      <point x="1323" y="3259"/>
      <point x="1393" y="3170"/>
      <point x="1393" y="3092" type="curve" smooth="yes"/>
      <point x="1393" y="3014"/>
      <point x="1327" y="2954"/>
    </contour>
  </outline>
</glyph>
<glyph name="mu" format="2">
  <advance width="1166"/>
  <unicode hex="00B5"/>
  <outline>
    <contour>
      <point x="523" y="-246" type="curve" smooth="yes"/>
      <point x="589" y="-246"/>
      <point x="641" y="-304"/>
      <point x="641" y="-380" type="curve" smooth="yes"/>
      <point x="641" y="-458"/>
      <point x="600" y="-520"/>
      <point x="454" y="-520" type="curve" smooth="yes"/>
      <point x="314" y="-520"/>
      <point x="193" y="-422"/>
      <point x="193" y="-242" type="curve" smooth="yes"/>
      <point x="193" y="642" type="line"/>
      <point x="205" y="642" type="line"/>
      <point x="205" y="-242" type="line" smooth="yes"/>
      <point x="205" y="-413"/>
      <point x="323" y="-525"/>
      <point x="493" y="-505" type="curve"/>
      <point x="493" y="-509" type="line"/>
      <point x="444" y="-490"/>
      <point x="403" y="-441"/>
      <point x="403" y="-370" type="curve" smooth="yes"/>
      <point x="403" y="-304"/>
      <point x="457" y="-246"/>
    </contour>
    <component base="u"/>
  </outline>
</glyph>
<glyph name="cedilla" format="2">
  <advance width="1099"/>
  <unicode hex="00B8"/>
  <outline>
    <contour>
      <point x="658" y="-279" type="curve" smooth="yes"/>
      <point x="658" y="-175"/>
      <point x="564" y="-158"/>
      <point x="434" y="-158" type="curve"/>
      <point x="614" y="82" type="line"/>
      <point x="630" y="82" type="line"/>
      <point x="510" y="-78" type="line"/>
      <point x="654" y="-84"/>
      <point x="800" y="-128"/>
      <point x="800" y="-240" type="curve" smooth="yes"/>
      <point x="800" y="-340"/>
      <point x="704" y="-409"/>
      <point x="462" y="-409" type="curve"/>
      <point x="462" y="-396" type="line"/>
      <point x="580" y="-396"/>
      <point x="658" y="-346"/>
    </contour>
  </outline>
</glyph>
<glyph name="AE" format="2">
  <advance width="2003"/>
  <unicode hex="00C6"/>
  <outline>
    <contour>
      <point x="1050" y="1500" type="line"/>
      <point x="1063" y="1500" type="line"/>
      <point x="229" y="0" type="line"/>
      <point x="214" y="0" type="line"/>
    </contour>
    <contour>
      <point x="30" y="12" type="line"/>
      <point x="470" y="12" type="line"/>
      <point x="470" y="0" type="line"/>
      <point x="30" y="0" type="line"/>
    </contour>
    <contour>
      <point x="494" y="497" type="line"/>
      <point x="1070" y="497" type="line"/>
      <point x="1070" y="484" type="line"/>
      <point x="494" y="484" type="line"/>
    </contour>
    <contour>
      <point x="1050" y="1500" type="line"/>
      <point x="1240" y="1500" type="line"/>
      <point x="1240" y="0" type="line"/>
      <point x="1050" y="0" type="line"/>
    </contour>
    <contour>
      <point x="1050" y="1500" type="line"/>
      <point x="1924" y="1500" type="line"/>
      <point x="1924" y="1090" type="line"/>
      <point x="1912" y="1090" type="line"/>
      <point x="1912" y="1304"/>
      <point x="1814" y="1488"/>
      <point x="1580" y="1488" type="curve" smooth="yes"/>
      <point x="1050" y="1488" type="line"/>
    </contour>
    <contour>
      <point x="1944" y="0" type="line"/>
      <point x="870" y="0" type="line"/>
      <point x="870" y="12" type="line"/>
      <point x="1560" y="12" type="line" smooth="yes"/>
      <point x="1834" y="12"/>
      <point x="1931" y="196"/>
      <point x="1931" y="450" type="curve"/>
      <point x="1944" y="450" type="line"/>
    </contour>
    <contour>
      <point x="1572" y="556" type="line"/>
      <point x="1572" y="690"/>
      <point x="1474" y="770"/>
      <point x="1360" y="770" type="curve" smooth="yes"/>
      <point x="1240" y="770" type="line"/>
      <point x="1240" y="783" type="line"/>
      <point x="1360" y="783" type="line" smooth="yes"/>
      <point x="1474" y="783"/>
      <point x="1572" y="852"/>
      <point x="1572" y="986" type="curve"/>
      <point x="1584" y="986" type="line"/>
      <point x="1584" y="556" type="line"/>
    </contour>
  </outline>
</glyph>
<glyph name="Thorn" format="2">
  <advance width="2478"/>
  <unicode hex="00DE"/>
  <outline>
    <contour>
      <point x="430" y="3072" type="line"/>
      <point x="819" y="3072" type="line"/>
      <point x="819" y="0" type="line"/>
      <point x="430" y="0" type="line"/>
    </contour>
    <contour>
      <point x="61" y="25" type="line"/>
      <point x="1188" y="25" type="line"/>
      <point x="1188" y="0" type="line"/>
      <point x="61" y="0" type="line"/>
    </contour>
    <contour>
      <point x="61" y="3072" type="line"/>
      <point x="1188" y="3072" type="line"/>
      <point x="1188" y="3047" type="line"/>
      <point x="61" y="3047" type="line"/>
    </contour>
    <contour>
      <point x="1270" y="737" type="curve" smooth="yes"/>
      <point x="737" y="737" type="line"/>
      <point x="737" y="763" type="line"/>
      <point x="1270" y="763" type="line" smooth="yes"/>
      <point x="1663" y="763"/>
      <point x="1884" y="1232"/>
      <point x="1884" y="1597" type="curve" smooth="yes"/>
      <point x="1884" y="1962"/>
      <point x="1663" y="2433"/>
      <point x="1270" y="2433" type="curve" smooth="yes"/>
      <point x="737" y="2433" type="line"/>
      <point x="737" y="2458" type="line"/>
      <point x="1270" y="2458" type="line" smooth="yes"/>
      <point x="2011" y="2458"/>
      <point x="2335" y="2129"/>
      <point x="2335" y="1597" type="curve" smooth="yes"/>
      <point x="2335" y="1065"/>
      <point x="2011" y="737"/>
    </contour>
  </outline>
</glyph>
<glyph name="germandbls" format="2">
  <advance width="1361"/>
  <unicode hex="00DF"/>
  <outline>
    <contour>
      <point x="686" y="807" type="curve"/>
      <point x="686" y="816" type="line"/>
      <point x="944" y="816"/>
      <point x="1020" y="1014"/>
      <point x="1020" y="1142" type="curve" smooth="yes"/>
      <point x="1020" y="1286"/>
      <point x="954" y="1508"/>
      <point x="746" y="1508" type="curve" smooth="yes"/>
      <point x="478" y="1508"/>
      <point x="390" y="1246"/>
      <point x="390" y="962" type="curve" smooth="yes"/>
      <point x="390" y="0" type="line"/>
      <point x="210" y="0" type="line"/>
      <point x="210" y="982" type="line" smooth="yes"/>
      <point x="210" y="1328"/>
      <point x="420" y="1520"/>
      <point x="746" y="1520" type="curve" smooth="yes"/>
      <point x="1032" y="1520"/>
      <point x="1222" y="1348"/>
      <point x="1222" y="1162" type="curve" smooth="yes"/>
      <point x="1222" y="962"/>
      <point x="1088" y="807"/>
    </contour>
    <contour>
      <point x="30" y="12" type="line"/>
      <point x="570" y="12" type="line"/>
      <point x="570" y="0" type="line"/>
      <point x="30" y="0" type="line"/>
    </contour>
    <contour>
      <point x="1282" y="320" type="curve" smooth="yes"/>
      <point x="1282" y="120"/>
      <point x="1104" y="-20"/>
      <point x="902" y="-20" type="curve" smooth="yes"/>
      <point x="760" y="-20"/>
      <point x="646" y="88"/>
      <point x="646" y="272" type="curve" smooth="yes"/>
      <point x="646" y="354"/>
      <point x="700" y="402"/>
      <point x="770" y="402" type="curve" smooth="yes"/>
      <point x="830" y="402"/>
      <point x="878" y="362"/>
      <point x="878" y="290" type="curve" smooth="yes"/>
      <point x="878" y="226"/>
      <point x="822" y="180"/>
      <point x="764" y="180" type="curve" smooth="yes"/>
      <point x="709" y="180"/>
      <point x="672" y="218"/>
      <point x="661" y="254" type="curve"/>
      <point x="667" y="93"/>
      <point x="771" y="-4"/>
      <point x="892" y="-4" type="curve" smooth="yes"/>
      <point x="1050" y="-4"/>
      <point x="1080" y="192"/>
      <point x="1080" y="320" type="curve" smooth="yes"/>
      <point x="1080" y="508"/>
      <point x="1024" y="804"/>
      <point x="686" y="804" type="curve"/>
      <point x="686" y="812" type="line"/>
      <point x="1168" y="812"/>
      <point x="1282" y="580"/>
    </contour>
  </outline>
</glyph>
<glyph name="thorn" format="2">
  <advance width="1156"/>
  <unicode hex="00FE"/>
  <outline>
    <contour>
      <point x="346" y="460" type="curve" smooth="yes"/>
      <point x="346" y="756"/>
      <point x="465" y="938"/>
      <point x="670" y="938" type="curve" smooth="yes"/>
      <point x="886" y="938"/>
      <point x="1091" y="760"/>
      <point x="1091" y="460" type="curve" smooth="yes"/>
      <point x="1091" y="160"/>
      <point x="886" y="-20"/>
      <point x="670" y="-20" type="curve" smooth="yes"/>
      <point x="465" y="-20"/>
      <point x="346" y="164"/>
    </contour>
    <contour>
      <point x="356" y="460" type="curve" smooth="yes"/>
      <point x="356" y="161"/>
      <point x="484" y="3"/>
      <point x="639" y="3" type="curve" smooth="yes"/>
      <point x="804" y="3"/>
      <point x="882" y="192"/>
      <point x="882" y="460" type="curve" smooth="yes"/>
      <point x="882" y="728"/>
      <point x="804" y="915"/>
      <point x="639" y="915" type="curve" smooth="yes"/>
      <point x="484" y="915"/>
      <point x="356" y="759"/>
    </contour>
    <contour>
      <point x="36" y="-488" type="line"/>
      <point x="496" y="-488" type="line"/>
      <point x="496" y="-500" type="line"/>
      <point x="36" y="-500" type="line"/>
    </contour>
    <contour>
      <point x="176" y="1488" type="line"/>
      <point x="36" y="1488" type="line"/>
      <point x="36" y="1500" type="line"/>
      <point x="356" y="1500" type="line"/>
      <point x="356" y="-500" type="line"/>
      <point x="176" y="-500" type="line"/>
    </contour>
  </outline>
</glyph>
<glyph name="dotlessi" format="2">
  <advance width="1128"/>
  <unicode hex="0131"/>
  <outline>
    <contour>
      <point x="94" y="25" type="line"/>
      <point x="1036" y="25" type="line"/>
      <point x="1036" y="0" type="line"/>
      <point x="94" y="0" type="line"/>
    </contour>
    <contour>
      <point x="381" y="1859" type="line"/>
      <point x="94" y="1859" type="line"/>
      <point x="94" y="1884" type="line"/>
      <point x="750" y="1884" type="line"/>
      <point x="750" y="0" type="line"/>
      <point x="381" y="0" type="line"/>
    </contour>
  </outline>
</glyph>
<glyph name="kgreenlandic" format="2">
  <advance width="1178"/>
  <unicode hex="0138"/>
  <outline>
    <contour>
      <point x="1070" y="0" type="line"/>
      <point x="846" y="0" type="line"/>
      <point x="398" y="523" type="line"/>
      <point x="902" y="920" type="line"/>
      <point x="919" y="920" type="line"/>
      <point x="542" y="620" type="line"/>
    </contour>
    <contour>
      <point x="671" y="12" type="line"/>
      <point x="1145" y="12" type="line"/>
      <point x="1145" y="0" type="line"/>
      <point x="671" y="0" type="line"/>
    </contour>
    <contour>
      <point x="1078" y="908" type="line"/>
      <point x="631" y="908" type="line"/>
      <point x="631" y="920" type="line"/>
      <point x="1078" y="920" type="line"/>
    </contour>
    <contour>
      <point x="53" y="12" type="line"/>
      <point x="553" y="12" type="line"/>
      <point x="553" y="0" type="line"/>
      <point x="53" y="0" type="line"/>
    </contour>
    <contour>
      <point x="234" y="908" type="line"/>
      <point x="53" y="908" type="line"/>
      <point x="53" y="920" type="line"/>
      <point x="414" y="920" type="line"/>
      <point x="414" y="0" type="line"/>
      <point x="234" y="0" type="line"/>
    </contour>
  </outline>
</glyph>
<glyph name="Lslash" format="2">
  <advance width="1152"/>
  <unicode hex="0141"/>
  <outline>
    <contour>
      <point x="38" y="720" type="line"/>
      <point x="728" y="1160" type="line"/>
      <point x="728" y="1145" type="line"/>
      <point x="38" y="705" type="line"/>
    </contour>
    <component base="L"/>
  </outline>
</glyph>
<glyph name="lslash" format="2">
  <advance width="636"/>
  <unicode hex="0142"/>
  <outline>
    <contour>
      <point x="50" y="800" type="line"/>
      <point x="620" y="1160" type="line"/>
      <point x="620" y="1146" type="line"/>
      <point x="50" y="786" type="line"/>
    </contour>
    <component base="l"/>
  </outline>
</glyph>
<glyph name="OE" format="2">
  <advance width="3909"/>
  <unicode hex="0152"/>
  <outline>
    <contour>
      <point x="1616" y="3047" type="move"/>
    </contour>
    <contour>
      <point x="635" y="1536" type="curve" smooth="yes"/>
      <point x="635" y="791"/>
      <point x="862" y="25"/>
      <point x="1616" y="25" type="curve"/>
      <point x="1574" y="0" type="line"/>
      <point x="743" y="0"/>
      <point x="164" y="623"/>
      <point x="164" y="1536" type="curve" smooth="yes"/>
      <point x="164" y="2449"/>
      <point x="743" y="3072"/>
      <point x="1574" y="3072" type="curve"/>
      <point x="1616" y="3047" type="line"/>
      <point x="862" y="3047"/>
      <point x="635" y="2281"/>
    </contour>
    <component base="E" xOffset="1482"/>
  </outline>
</glyph>
<glyph name="uni0237" format="2">
  <advance width="1190"/>
  <unicode hex="0237"/>
  <outline>
    <contour>
      <point x="846" y="1884" type="line"/>
      <point x="846" y="-49" type="line" smooth="yes"/>
      <point x="846" y="-586"/>
      <point x="735" y="-1065"/>
      <point x="203" y="-1065" type="curve" smooth="yes"/>
      <point x="-129" y="-1065"/>
      <point x="-301" y="-851"/>
      <point x="-301" y="-618" type="curve" smooth="yes"/>
      <point x="-301" y="-450"/>
      <point x="-191" y="-365"/>
      <point x="-68" y="-365" type="curve" smooth="yes"/>
      <point x="34" y="-365"/>
      <point x="162" y="-422"/>
      <point x="162" y="-586" type="curve" smooth="yes"/>
      <point x="162" y="-743"/>
      <point x="52" y="-815"/>
      <point x="-88" y="-815" type="curve" smooth="yes"/>
      <point x="-167" y="-815"/>
      <point x="-244" y="-747"/>
      <point x="-263" y="-679" type="curve"/>
      <point x="-256" y="-854"/>
      <point x="-89" y="-1037"/>
      <point x="182" y="-1037" type="curve" smooth="yes"/>
      <point x="551" y="-1037"/>
      <point x="478" y="-438"/>
      <point x="478" y="82" type="curve" smooth="yes"/>
      <point x="478" y="1859" type="line"/>
      <point x="113" y="1859" type="line"/>
      <point x="113" y="1884" type="line"/>
    </contour>
  </outline>
</glyph>
<glyph name="circumflex" format="2">
  <advance width="769"/>
  <unicode hex="02C6"/>
  <outline>
    <contour>
      <point x="384" y="1450" type="line"/>
      <point x="106" y="1312" type="line"/>
      <point x="100" y="1320" type="line"/>
      <point x="320" y="1540" type="line"/>
      <point x="450" y="1540" type="line"/>
      <point x="670" y="1320" type="line"/>
      <point x="664" y="1312" type="line"/>
    </contour>
  </outline>
</glyph>
<glyph name="breve" format="2">
  <advance width="559"/>
  <unicode hex="02D8"/>
  <outline>
    <contour>
      <point x="69" y="1518" type="line"/>
      <point x="69" y="1420"/>
      <point x="172" y="1370"/>
      <point x="280" y="1370" type="curve" smooth="yes"/>
      <point x="388" y="1370"/>
      <point x="492" y="1420"/>
      <point x="492" y="1518" type="curve"/>
      <point x="500" y="1518" type="line"/>
      <point x="500" y="1396"/>
      <point x="460" y="1260"/>
      <point x="280" y="1260" type="curve" smooth="yes"/>
      <point x="100" y="1260"/>
      <point x="60" y="1396"/>
      <point x="60" y="1518" type="curve"/>
    </contour>
  </outline>
</glyph>
<glyph name="ring" format="2">
  <advance width="639"/>
  <unicode hex="02DA"/>
  <outline>
    <contour>
      <point x="140" y="1360" type="curve" smooth="yes"/>
      <point x="140" y="1462"/>
      <point x="218" y="1540"/>
      <point x="320" y="1540" type="curve" smooth="yes"/>
      <point x="422" y="1540"/>
      <point x="500" y="1462"/>
      <point x="500" y="1360" type="curve" smooth="yes"/>
      <point x="500" y="1258"/>
      <point x="422" y="1180"/>
      <point x="320" y="1180" type="curve" smooth="yes"/>
      <point x="218" y="1180"/>
      <point x="140" y="1258"/>
    </contour>
    <contour>
      <point x="211" y="1360" type="curve" smooth="yes"/>
      <point x="211" y="1277"/>
      <point x="231" y="1192"/>
      <point x="320" y="1192" type="curve" smooth="yes"/>
      <point x="409" y="1192"/>
      <point x="429" y="1277"/>
      <point x="429" y="1360" type="curve" smooth="yes"/>
      <point x="429" y="1443"/>
      <point x="409" y="1528"/>
      <point x="320" y="1528" type="curve" smooth="yes"/>
      <point x="231" y="1528"/>
      <point x="211" y="1443"/>
    </contour>
  </outline>
</glyph>
<glyph name="ogonek" format="2">
  <advance width="1099"/>
  <unicode hex="02DB"/>
  <outline>
    <contour>
      <point x="776" y="-226" type="line"/>
      <point x="746" y="-282"/>
      <point x="688" y="-372"/>
      <point x="546" y="-372" type="curve" smooth="yes"/>
      <point x="444" y="-372"/>
      <point x="330" y="-320"/>
      <point x="330" y="-200" type="curve" smooth="yes"/>
      <point x="330" y="-40"/>
      <point x="486" y="46"/>
      <point x="608" y="86" type="curve"/>
      <point x="615" y="78" type="line"/>
      <point x="553" y="44"/>
      <point x="516" y="-46"/>
      <point x="516" y="-167" type="curve" smooth="yes"/>
      <point x="516" y="-258"/>
      <point x="560" y="-329"/>
      <point x="628" y="-329" type="curve" smooth="yes"/>
      <point x="699" y="-329"/>
      <point x="733" y="-279"/>
      <point x="769" y="-220" type="curve"/>
    </contour>
  </outline>
</glyph>
<glyph name="tilde" format="2">
  <advance width="895"/>
  <unicode hex="02DC"/>
  <outline>
    <contour>
      <point x="250" y="1338" type="curve" smooth="yes"/>
      <point x="184" y="1338"/>
      <point x="112" y="1304"/>
      <point x="112" y="1200" type="curve"/>
      <point x="100" y="1200" type="line"/>
      <point x="100" y="1370"/>
      <point x="203" y="1454"/>
      <point x="301" y="1454" type="curve" smooth="yes"/>
      <point x="445" y="1454"/>
      <point x="536" y="1296"/>
      <point x="646" y="1296" type="curve" smooth="yes"/>
      <point x="729" y="1296"/>
      <point x="784" y="1330"/>
      <point x="784" y="1434" type="curve"/>
      <point x="796" y="1434" type="line"/>
      <point x="796" y="1244"/>
      <point x="733" y="1180"/>
      <point x="615" y="1180" type="curve" smooth="yes"/>
      <point x="477" y="1180"/>
      <point x="374" y="1338"/>
    </contour>
  </outline>
</glyph>
<glyph name="pi" format="2">
  <advance width="1161"/>
  <unicode hex="03C0"/>
  <outline>
    <contour>
      <point x="1092" y="206" type="line"/>
      <point x="1046" y="66"/>
      <point x="980" y="-20"/>
      <point x="876" y="-20" type="curve" smooth="yes"/>
      <point x="782" y="-20"/>
      <point x="692" y="28"/>
      <point x="692" y="146" type="curve" smooth="yes"/>
      <point x="692" y="840" type="line"/>
      <point x="872" y="840" type="line"/>
      <point x="872" y="168" type="line" smooth="yes"/>
      <point x="872" y="128"/>
      <point x="898" y="96"/>
      <point x="946" y="96" type="curve" smooth="yes"/>
      <point x="999" y="96"/>
      <point x="1041" y="128"/>
      <point x="1083" y="213" type="curve"/>
    </contour>
    <contour>
      <point x="208" y="-20" type="curve" smooth="yes"/>
      <point x="126" y="-20"/>
      <point x="90" y="26"/>
      <point x="90" y="76" type="curve" smooth="yes"/>
      <point x="90" y="212"/>
      <point x="314" y="164"/>
      <point x="314" y="558" type="curve" smooth="yes"/>
      <point x="314" y="900" type="line"/>
      <point x="426" y="900" type="line"/>
      <point x="426" y="486" type="line" smooth="yes"/>
      <point x="426" y="170"/>
      <point x="344" y="-20"/>
    </contour>
    <contour>
      <point x="1052" y="920" type="line"/>
      <point x="1052" y="740" type="line"/>
      <point x="94" y="740" type="line"/>
      <point x="94" y="590" type="line"/>
      <point x="82" y="590" type="line"/>
      <point x="82" y="920" type="line"/>
    </contour>
  </outline>
</glyph>
<glyph name="uni1E9E" format="2">
  <advance width="1601"/>
  <unicode hex="1E9E"/>
  <outline>
    <contour>
      <point x="30" y="12" type="line"/>
      <point x="590" y="12" type="line"/>
      <point x="590" y="0" type="line"/>
      <point x="30" y="0" type="line"/>
    </contour>
    <contour>
      <point x="1047" y="813" type="line"/>
      <point x="979" y="820"/>
      <point x="913" y="825"/>
      <point x="846" y="830" type="curve"/>
      <point x="1318" y="1413" type="line"/>
      <point x="1248" y="1452"/>
      <point x="1114" y="1507"/>
      <point x="926" y="1507" type="curve" smooth="yes"/>
      <point x="578" y="1507"/>
      <point x="410" y="1206"/>
      <point x="410" y="862" type="curve" smooth="yes"/>
      <point x="410" y="0" type="line"/>
      <point x="210" y="0" type="line"/>
      <point x="210" y="882" type="line" smooth="yes"/>
      <point x="210" y="1288"/>
      <point x="520" y="1520"/>
      <point x="926" y="1520" type="curve" smooth="yes"/>
      <point x="1232" y="1520"/>
      <point x="1402" y="1388"/>
      <point x="1462" y="1322" type="curve"/>
    </contour>
    <contour>
      <point x="626" y="246" type="curve"/>
      <point x="632" y="126"/>
      <point x="759" y="-2"/>
      <point x="982" y="-2" type="curve" smooth="yes"/>
      <point x="1220" y="-2"/>
      <point x="1310" y="192"/>
      <point x="1310" y="380" type="curve" smooth="yes"/>
      <point x="1310" y="528"/>
      <point x="1284" y="818"/>
      <point x="846" y="818" type="curve"/>
      <point x="846" y="830" type="line"/>
      <point x="1428" y="830"/>
      <point x="1522" y="600"/>
      <point x="1522" y="380" type="curve" smooth="yes"/>
      <point x="1522" y="120"/>
      <point x="1304" y="-20"/>
      <point x="1022" y="-20" type="curve" smooth="yes"/>
      <point x="738" y="-20"/>
      <point x="610" y="128"/>
      <point x="610" y="272" type="curve" smooth="yes"/>
      <point x="610" y="354"/>
      <point x="660" y="402"/>
      <point x="730" y="402" type="curve" smooth="yes"/>
      <point x="790" y="402"/>
      <point x="838" y="362"/>
      <point x="838" y="290" type="curve" smooth="yes"/>
      <point x="838" y="226"/>
      <point x="782" y="180"/>
      <point x="724" y="180" type="curve" smooth="yes"/>
      <point x="676" y="180"/>
      <point x="634" y="216"/>
    </contour>
  </outline>
</glyph>
<glyph name="uni2031" format="2">
  <advance width="3899"/>
  <unicode hex="2031"/>
  <outline>
    <contour>
      <point x="3250" y="420" type="curve" smooth="yes"/>
      <point x="3250" y="216"/>
      <point x="3282" y="-7"/>
      <point x="3430" y="-7" type="curve" smooth="yes"/>
      <point x="3578" y="-7"/>
      <point x="3610" y="216"/>
      <point x="3610" y="420" type="curve" smooth="yes"/>
      <point x="3610" y="624"/>
      <point x="3578" y="848"/>
      <point x="3430" y="848" type="curve" smooth="yes"/>
      <point x="3282" y="848"/>
      <point x="3250" y="624"/>
    </contour>
    <contour>
      <point x="3030" y="420" type="curve" smooth="yes"/>
      <point x="3030" y="706"/>
      <point x="3204" y="860"/>
      <point x="3430" y="860" type="curve" smooth="yes"/>
      <point x="3656" y="860"/>
      <point x="3830" y="706"/>
      <point x="3830" y="420" type="curve" smooth="yes"/>
      <point x="3830" y="134"/>
      <point x="3616" y="-20"/>
      <point x="3430" y="-20" type="curve" smooth="yes"/>
      <point x="3204" y="-20"/>
      <point x="3030" y="134"/>
    </contour>
    <contour>
      <point x="2290" y="420" type="curve" smooth="yes"/>
      <point x="2290" y="216"/>
      <point x="2322" y="-7"/>
      <point x="2470" y="-7" type="curve" smooth="yes"/>
      <point x="2618" y="-7"/>
      <point x="2650" y="216"/>
      <point x="2650" y="420" type="curve" smooth="yes"/>
      <point x="2650" y="624"/>
      <point x="2618" y="848"/>
      <point x="2470" y="848" type="curve" smooth="yes"/>
      <point x="2322" y="848"/>
      <point x="2290" y="624"/>
    </contour>
    <contour>
      <point x="2070" y="420" type="curve" smooth="yes"/>
      <point x="2070" y="706"/>
      <point x="2244" y="860"/>
      <point x="2470" y="860" type="curve" smooth="yes"/>
      <point x="2696" y="860"/>
      <point x="2870" y="706"/>
      <point x="2870" y="420" type="curve" smooth="yes"/>
      <point x="2870" y="134"/>
      <point x="2656" y="-20"/>
      <point x="2470" y="-20" type="curve" smooth="yes"/>
      <point x="2244" y="-20"/>
      <point x="2070" y="134"/>
    </contour>
    <contour>
      <point x="1350" y="420" type="curve" smooth="yes"/>
      <point x="1350" y="216"/>
      <point x="1382" y="-7"/>
      <point x="1530" y="-7" type="curve" smooth="yes"/>
      <point x="1678" y="-7"/>
      <point x="1710" y="216"/>
      <point x="1710" y="420" type="curve" smooth="yes"/>
      <point x="1710" y="624"/>
      <point x="1678" y="848"/>
      <point x="1530" y="848" type="curve" smooth="yes"/>
      <point x="1382" y="848"/>
      <point x="1350" y="624"/>
    </contour>
    <contour>
      <point x="1130" y="420" type="curve" smooth="yes"/>
      <point x="1130" y="706"/>
      <point x="1304" y="860"/>
      <point x="1530" y="860" type="curve" smooth="yes"/>
      <point x="1756" y="860"/>
      <point x="1930" y="706"/>
      <point x="1930" y="420" type="curve" smooth="yes"/>
      <point x="1930" y="134"/>
      <point x="1716" y="-20"/>
      <point x="1530" y="-20" type="curve" smooth="yes"/>
      <point x="1304" y="-20"/>
      <point x="1130" y="134"/>
    </contour>
    <contour>
      <point x="1517" y="1500" type="line"/>
      <point x="1532" y="1500" type="line"/>
      <point x="483" y="0" type="line"/>
      <point x="468" y="0" type="line"/>
    </contour>
    <contour>
      <point x="290" y="1080" type="curve" smooth="yes"/>
      <point x="290" y="876"/>
      <point x="322" y="652"/>
      <point x="470" y="652" type="curve" smooth="yes"/>
      <point x="618" y="652"/>
      <point x="650" y="876"/>
      <point x="650" y="1080" type="curve" smooth="yes"/>
      <point x="650" y="1284"/>
      <point x="618" y="1507"/>
      <point x="470" y="1507" type="curve" smooth="yes"/>
      <point x="322" y="1507"/>
      <point x="290" y="1284"/>
    </contour>
    <contour>
      <point x="70" y="1080" type="curve" smooth="yes"/>
      <point x="70" y="1366"/>
      <point x="244" y="1520"/>
      <point x="470" y="1520" type="curve" smooth="yes"/>
      <point x="696" y="1520"/>
      <point x="870" y="1366"/>
      <point x="870" y="1080" type="curve" smooth="yes"/>
      <point x="870" y="794"/>
      <point x="656" y="640"/>
      <point x="470" y="640" type="curve" smooth="yes"/>
      <point x="244" y="640"/>
      <point x="70" y="794"/>
    </contour>
  </outline>
</glyph>
<glyph name="uni203D" format="2">
  <advance width="1199"/>
  <unicode hex="203D"/>
  <outline>
    <contour>
      <point x="732" y="968" type="curve" smooth="yes"/>
      <point x="710" y="776"/>
      <point x="600" y="556"/>
      <point x="600" y="416" type="curve"/>
      <point x="587" y="416" type="line"/>
      <point x="587" y="556"/>
      <point x="518" y="776"/>
      <point x="496" y="968" type="curve" smooth="yes"/>
      <point x="494" y="982"/>
      <point x="494" y="994"/>
      <point x="494" y="1006" type="curve" smooth="yes"/>
      <point x="494" y="1062"/>
      <point x="520" y="1156"/>
      <point x="614" y="1156" type="curve" smooth="yes"/>
      <point x="708" y="1156"/>
      <point x="734" y="1062"/>
      <point x="734" y="1006" type="curve" smooth="yes"/>
      <point x="734" y="994"/>
      <point x="734" y="982"/>
    </contour>
    <contour>
      <point x="140" y="1082" type="curve" smooth="yes"/>
      <point x="140" y="1266"/>
      <point x="328" y="1520"/>
      <point x="652" y="1520" type="curve" smooth="yes"/>
      <point x="954" y="1520"/>
      <point x="1140" y="1360"/>
      <point x="1140" y="1100" type="curve" smooth="yes"/>
      <point x="1140" y="860"/>
      <point x="896" y="670"/>
      <point x="654" y="670" type="curve"/>
      <point x="654" y="680" type="line"/>
      <point x="828" y="702"/>
      <point x="958" y="919"/>
      <point x="958" y="1120" type="curve" smooth="yes"/>
      <point x="958" y="1308"/>
      <point x="824" y="1494"/>
      <point x="606" y="1494" type="curve" smooth="yes"/>
      <point x="338" y="1494"/>
      <point x="169" y="1261"/>
      <point x="163" y="1118" type="curve"/>
      <point x="174" y="1148"/>
      <point x="201" y="1180"/>
      <point x="254" y="1180" type="curve" smooth="yes"/>
      <point x="312" y="1180"/>
      <point x="368" y="1140"/>
      <point x="368" y="1070" type="curve" smooth="yes"/>
      <point x="368" y="990"/>
      <point x="304" y="958"/>
      <point x="254" y="958" type="curve" smooth="yes"/>
      <point x="194" y="958"/>
      <point x="140" y="1000"/>
    </contour>
    <component base="period" xOffset="398"/>
  </outline>
</glyph>
<glyph name="Euro" format="2">
  <advance width="1419"/>
  <unicode hex="20AC"/>
  <outline>
    <contour>
      <point x="1289" y="1275" type="curve"/>
      <point x="1265" y="1364"/>
      <point x="1137" y="1505"/>
      <point x="938" y="1505" type="curve" smooth="yes"/>
      <point x="600" y="1505"/>
      <point x="480" y="1098"/>
      <point x="480" y="750" type="curve" smooth="yes"/>
      <point x="480" y="362"/>
      <point x="632" y="-3"/>
      <point x="890" y="-3" type="curve" smooth="yes"/>
      <point x="1095" y="-3"/>
      <point x="1243" y="168"/>
      <point x="1293" y="356" type="curve"/>
      <point x="1306" y="356" type="line"/>
      <point x="1254" y="162"/>
      <point x="1108" y="-20"/>
      <point x="866" y="-20" type="curve" smooth="yes"/>
      <point x="564" y="-20"/>
      <point x="250" y="290"/>
      <point x="250" y="750" type="curve" smooth="yes"/>
      <point x="250" y="1170"/>
      <point x="516" y="1520"/>
      <point x="918" y="1520" type="curve" smooth="yes"/>
      <point x="1162" y="1520"/>
      <point x="1310" y="1336"/>
      <point x="1310" y="1232" type="curve" smooth="yes"/>
      <point x="1310" y="1150"/>
      <point x="1256" y="1108"/>
      <point x="1196" y="1108" type="curve" smooth="yes"/>
      <point x="1146" y="1108"/>
      <point x="1082" y="1140"/>
      <point x="1082" y="1220" type="curve" smooth="yes"/>
      <point x="1082" y="1290"/>
      <point x="1138" y="1330"/>
      <point x="1196" y="1330" type="curve" smooth="yes"/>
      <point x="1249" y="1330"/>
      <point x="1281" y="1293"/>
    </contour>
    <component base="equal" xOffset="-60" yOffset="-140"/>
  </outline>
</glyph>
<glyph name="uni2116" format="2">
  <advance width="4477"/>
  <unicode hex="2116"/>
  <outline>
    <contour>
      <point x="3327" y="2335" type="curve" smooth="yes"/>
      <point x="3327" y="1868"/>
      <point x="3429" y="1581"/>
      <point x="3671" y="1581" type="curve" smooth="yes"/>
      <point x="3913" y="1581"/>
      <point x="4015" y="1868"/>
      <point x="4015" y="2335" type="curve" smooth="yes"/>
      <point x="4015" y="2802"/>
      <point x="3913" y="3087"/>
      <point x="3671" y="3087" type="curve" smooth="yes"/>
      <point x="3429" y="3087"/>
      <point x="3327" y="2802"/>
    </contour>
    <contour>
      <point x="2979" y="2335" type="curve" smooth="yes"/>
      <point x="2979" y="2827"/>
      <point x="3257" y="3113"/>
      <point x="3671" y="3113" type="curve" smooth="yes"/>
      <point x="4085" y="3113"/>
      <point x="4364" y="2827"/>
      <point x="4364" y="2335" type="curve" smooth="yes"/>
      <point x="4364" y="1843"/>
      <point x="4085" y="1556"/>
      <point x="3671" y="1556" type="curve" smooth="yes"/>
      <point x="3257" y="1556"/>
      <point x="2979" y="1843"/>
    </contour>
    <component base="hyphen" xOffset="2934" yOffset="164"/>
    <component base="N"/>
  </outline>
</glyph>
<glyph name="uniFB00" format="2">
  <advance width="1347"/>
  <unicode hex="FB00"/>
  <outline>
    <contour>
      <point x="57" y="12" type="line"/>
      <point x="1222" y="12" type="line"/>
      <point x="1222" y="0" type="line"/>
      <point x="57" y="0" type="line"/>
    </contour>
    <contour>
      <point x="57" y="920" type="line"/>
      <point x="1262" y="920" type="line"/>
      <point x="1262" y="908" type="line"/>
      <point x="57" y="908" type="line"/>
    </contour>
    <contour>
      <point x="919" y="1233" type="curve"/>
      <point x="912" y="1304"/>
      <point x="820" y="1408"/>
      <point x="671" y="1408" type="curve" smooth="yes"/>
      <point x="508" y="1408"/>
      <point x="416" y="1234"/>
      <point x="416" y="980" type="curve" smooth="yes"/>
      <point x="416" y="0" type="line"/>
      <point x="236" y="0" type="line"/>
      <point x="236" y="924" type="line" smooth="yes"/>
      <point x="236" y="1186"/>
      <point x="408" y="1420"/>
      <point x="671" y="1420" type="curve" smooth="yes"/>
      <point x="835" y="1420"/>
      <point x="940" y="1297"/>
      <point x="940" y="1203" type="curve" smooth="yes"/>
      <point x="940" y="1121"/>
      <point x="886" y="1079"/>
      <point x="826" y="1079" type="curve" smooth="yes"/>
      <point x="776" y="1079"/>
      <point x="714" y="1114"/>
      <point x="714" y="1191" type="curve" smooth="yes"/>
      <point x="714" y="1267"/>
      <point x="769" y="1298"/>
      <point x="827" y="1298" type="curve" smooth="yes"/>
      <point x="868" y="1298"/>
      <point x="905" y="1275"/>
    </contour>
    <contour>
      <point x="1433" y="1353" type="curve"/>
      <point x="1423" y="1424"/>
      <point x="1349" y="1507"/>
      <point x="1204" y="1507" type="curve" smooth="yes"/>
      <point x="1044" y="1507"/>
      <point x="990" y="1334"/>
      <point x="990" y="1080" type="curve" smooth="yes"/>
      <point x="990" y="0" type="line"/>
      <point x="811" y="0" type="line"/>
      <point x="811" y="1024" type="line" smooth="yes"/>
      <point x="811" y="1286"/>
      <point x="944" y="1520"/>
      <point x="1204" y="1520" type="curve" smooth="yes"/>
      <point x="1366" y="1520"/>
      <point x="1450" y="1416"/>
      <point x="1450" y="1322" type="curve" smooth="yes"/>
      <point x="1450" y="1240"/>
      <point x="1396" y="1198"/>
      <point x="1336" y="1198" type="curve" smooth="yes"/>
      <point x="1286" y="1198"/>
      <point x="1224" y="1232"/>
      <point x="1224" y="1309" type="curve" smooth="yes"/>
      <point x="1224" y="1385"/>
      <point x="1279" y="1417"/>
      <point x="1336" y="1417" type="curve" smooth="yes"/>
      <point x="1379" y="1417"/>
      <point x="1418" y="1394"/>
    </contour>
  </outline>
</glyph>
<glyph name="uniFB01" format="2">
  <advance width="1185"/>
  <unicode hex="FB01"/>
  <outline>
    <contour>
      <point x="236" y="1024" type="line" smooth="yes"/>
      <point x="236" y="1286"/>
      <point x="394" y="1520"/>
      <point x="693" y="1520" type="curve" smooth="yes"/>
      <point x="894" y="1520"/>
      <point x="980" y="1419"/>
      <point x="980" y="1304" type="curve" smooth="yes"/>
      <point x="980" y="1222"/>
      <point x="926" y="1180"/>
      <point x="866" y="1180" type="curve" smooth="yes"/>
      <point x="813" y="1180"/>
      <point x="754" y="1218"/>
      <point x="754" y="1289" type="curve" smooth="yes"/>
      <point x="754" y="1361"/>
      <point x="809" y="1400"/>
      <point x="866" y="1400" type="curve" smooth="yes"/>
      <point x="920" y="1400"/>
      <point x="957" y="1366"/>
      <point x="962" y="1333" type="curve"/>
      <point x="955" y="1420"/>
      <point x="879" y="1507"/>
      <point x="693" y="1507" type="curve" smooth="yes"/>
      <point x="476" y="1507"/>
      <point x="416" y="1334"/>
      <point x="416" y="1080" type="curve" smooth="yes"/>
      <point x="416" y="0" type="line"/>
      <point x="236" y="0" type="line"/>
    </contour>
    <contour>
      <point x="57" y="12" type="line"/>
      <point x="1110" y="12" type="line"/>
      <point x="1110" y="0" type="line"/>
      <point x="57" y="0" type="line"/>
    </contour>
    <contour>
      <point x="790" y="908" type="line"/>
      <point x="57" y="908" type="line"/>
      <point x="57" y="920" type="line"/>
      <point x="970" y="920" type="line"/>
      <point x="970" y="0" type="line"/>
      <point x="790" y="0" type="line"/>
    </contour>
  </outline>
</glyph>
<glyph name="uniFB02" format="2">
  <advance width="1214"/>
  <unicode hex="FB02"/>
  <outline>
    <contour>
      <point x="57" y="12" type="line"/>
      <point x="1150" y="12" type="line"/>
      <point x="1150" y="0" type="line"/>
      <point x="57" y="0" type="line"/>
    </contour>
    <contour>
      <point x="57" y="920" type="line"/>
      <point x="688" y="920" type="line"/>
      <point x="688" y="908" type="line"/>
      <point x="57" y="908" type="line"/>
    </contour>
    <contour>
      <point x="825" y="1460" type="line"/>
      <point x="1006" y="1540" type="line"/>
      <point x="1006" y="0" type="line"/>
      <point x="825" y="0" type="line"/>
    </contour>
    <contour>
      <point x="877" y="1337" type="curve"/>
      <point x="870" y="1420"/>
      <point x="795" y="1507"/>
      <point x="649" y="1507" type="curve" smooth="yes"/>
      <point x="454" y="1507"/>
      <point x="416" y="1334"/>
      <point x="416" y="1080" type="curve" smooth="yes"/>
      <point x="416" y="0" type="line"/>
      <point x="236" y="0" type="line"/>
      <point x="236" y="1024" type="line" smooth="yes"/>
      <point x="236" y="1286"/>
      <point x="389" y="1520"/>
      <point x="649" y="1520" type="curve" smooth="yes"/>
      <point x="811" y="1520"/>
      <point x="896" y="1419"/>
      <point x="896" y="1307" type="curve" smooth="yes"/>
      <point x="896" y="1225"/>
      <point x="842" y="1183"/>
      <point x="782" y="1183" type="curve" smooth="yes"/>
      <point x="732" y="1183"/>
      <point x="669" y="1211"/>
      <point x="669" y="1291" type="curve" smooth="yes"/>
      <point x="669" y="1370"/>
      <point x="726" y="1402"/>
      <point x="791" y="1402" type="curve" smooth="yes"/>
      <point x="847" y="1402"/>
      <point x="870" y="1358"/>
    </contour>
  </outline>
</glyph>
<glyph name="uniFB03" format="2">
  <advance width="1759"/>
  <unicode hex="FB03"/>
  <outline>
    <contour>
      <point x="811" y="1025" type="line" smooth="yes"/>
      <point x="811" y="1287"/>
      <point x="969" y="1520"/>
      <point x="1267" y="1520" type="curve" smooth="yes"/>
      <point x="1468" y="1520"/>
      <point x="1553" y="1419"/>
      <point x="1553" y="1304" type="curve" smooth="yes"/>
      <point x="1553" y="1222"/>
      <point x="1499" y="1180"/>
      <point x="1439" y="1180" type="curve" smooth="yes"/>
      <point x="1386" y="1180"/>
      <point x="1327" y="1218"/>
      <point x="1327" y="1289" type="curve" smooth="yes"/>
      <point x="1327" y="1361"/>
      <point x="1383" y="1400"/>
      <point x="1440" y="1400" type="curve" smooth="yes"/>
      <point x="1492" y="1400"/>
      <point x="1531" y="1366"/>
      <point x="1536" y="1333" type="curve"/>
      <point x="1529" y="1419"/>
      <point x="1453" y="1508"/>
      <point x="1267" y="1508" type="curve" smooth="yes"/>
      <point x="1052" y="1508"/>
      <point x="990" y="1339"/>
      <point x="990" y="1081" type="curve" smooth="yes"/>
      <point x="990" y="0" type="line"/>
      <point x="811" y="0" type="line"/>
    </contour>
    <contour>
      <point x="57" y="12" type="line"/>
      <point x="1684" y="12" type="line"/>
      <point x="1684" y="0" type="line"/>
      <point x="57" y="0" type="line"/>
    </contour>
    <contour>
      <point x="236" y="924" type="line" smooth="yes"/>
      <point x="236" y="1184"/>
      <point x="407" y="1420"/>
      <point x="671" y="1420" type="curve" smooth="yes"/>
      <point x="835" y="1420"/>
      <point x="940" y="1299"/>
      <point x="940" y="1203" type="curve" smooth="yes"/>
      <point x="940" y="1121"/>
      <point x="886" y="1079"/>
      <point x="826" y="1079" type="curve" smooth="yes"/>
      <point x="776" y="1079"/>
      <point x="714" y="1114"/>
      <point x="714" y="1191" type="curve" smooth="yes"/>
      <point x="714" y="1267"/>
      <point x="769" y="1299"/>
      <point x="826" y="1299" type="curve" smooth="yes"/>
      <point x="869" y="1299"/>
      <point x="905" y="1276"/>
      <point x="920" y="1232" type="curve"/>
      <point x="912" y="1304"/>
      <point x="820" y="1408"/>
      <point x="671" y="1408" type="curve" smooth="yes"/>
      <point x="506" y="1408"/>
      <point x="416" y="1234"/>
      <point x="416" y="980" type="curve" smooth="yes"/>
      <point x="416" y="0" type="line"/>
      <point x="236" y="0" type="line"/>
    </contour>
    <contour>
      <point x="1363" y="908" type="line"/>
      <point x="57" y="908" type="line"/>
      <point x="57" y="920" type="line"/>
      <point x="1543" y="920" type="line"/>
      <point x="1543" y="0" type="line"/>
      <point x="1363" y="0" type="line"/>
    </contour>
  </outline>
</glyph>
<glyph name="uniFB04" format="2">
  <advance width="1780"/>
  <unicode hex="FB04"/>
  <outline>
    <contour>
      <point x="57" y="12" type="line"/>
      <point x="1719" y="12" type="line"/>
      <point x="1719" y="0" type="line"/>
      <point x="57" y="0" type="line"/>
    </contour>
    <contour>
      <point x="57" y="920" type="line"/>
      <point x="1257" y="920" type="line"/>
      <point x="1257" y="908" type="line"/>
      <point x="57" y="908" type="line"/>
    </contour>
    <contour>
      <point x="1394" y="1460" type="line"/>
      <point x="1574" y="1540" type="line"/>
      <point x="1574" y="0" type="line"/>
      <point x="1394" y="0" type="line"/>
    </contour>
    <contour>
      <point x="915" y="1233" type="curve"/>
      <point x="906" y="1305"/>
      <point x="817" y="1408"/>
      <point x="668" y="1408" type="curve" smooth="yes"/>
      <point x="506" y="1408"/>
      <point x="416" y="1234"/>
      <point x="416" y="980" type="curve" smooth="yes"/>
      <point x="416" y="0" type="line"/>
      <point x="236" y="0" type="line"/>
      <point x="236" y="924" type="line" smooth="yes"/>
      <point x="236" y="1186"/>
      <point x="407" y="1420"/>
      <point x="668" y="1420" type="curve" smooth="yes"/>
      <point x="832" y="1420"/>
      <point x="936" y="1297"/>
      <point x="936" y="1203" type="curve" smooth="yes"/>
      <point x="936" y="1121"/>
      <point x="881" y="1079"/>
      <point x="821" y="1079" type="curve" smooth="yes"/>
      <point x="771" y="1079"/>
      <point x="709" y="1114"/>
      <point x="709" y="1191" type="curve" smooth="yes"/>
      <point x="709" y="1267"/>
      <point x="765" y="1298"/>
      <point x="822" y="1298" type="curve" smooth="yes"/>
      <point x="865" y="1298"/>
      <point x="901" y="1275"/>
    </contour>
    <contour>
      <point x="1444" y="1336" type="curve"/>
      <point x="1440" y="1416"/>
      <point x="1367" y="1507"/>
      <point x="1218" y="1507" type="curve" smooth="yes"/>
      <point x="1023" y="1507"/>
      <point x="985" y="1334"/>
      <point x="985" y="1080" type="curve" smooth="yes"/>
      <point x="985" y="0" type="line"/>
      <point x="806" y="0" type="line"/>
      <point x="806" y="1024" type="line" smooth="yes"/>
      <point x="806" y="1286"/>
      <point x="958" y="1520"/>
      <point x="1218" y="1520" type="curve" smooth="yes"/>
      <point x="1380" y="1520"/>
      <point x="1464" y="1419"/>
      <point x="1464" y="1307" type="curve" smooth="yes"/>
      <point x="1464" y="1225"/>
      <point x="1410" y="1183"/>
      <point x="1350" y="1183" type="curve" smooth="yes"/>
      <point x="1300" y="1183"/>
      <point x="1237" y="1211"/>
      <point x="1237" y="1291" type="curve" smooth="yes"/>
      <point x="1237" y="1370"/>
      <point x="1293" y="1402"/>
      <point x="1358" y="1402" type="curve" smooth="yes"/>
      <point x="1414" y="1402"/>
      <point x="1434" y="1355"/>
    </contour>
  </outline>
</glyph>
<glyph name="J.alt" format="2">
  <advance width="2214"/>
  <outline>
    <contour>
      <point x="864" y="3072" type="line"/>
      <point x="2154" y="3072" type="line"/>
      <point x="2154" y="3047" type="line"/>
      <point x="864" y="3047" type="line"/>
    </contour>
    <contour>
      <point x="1356" y="3072" type="line"/>
      <point x="1745" y="3072" type="line"/>
      <point x="1745" y="1147" type="line" smooth="yes"/>
      <point x="1745" y="492"/>
      <point x="1421" y="-41"/>
      <point x="762" y="-41" type="curve" smooth="yes"/>
      <point x="283" y="-41"/>
      <point x="82" y="307"/>
      <point x="82" y="594" type="curve" smooth="yes"/>
      <point x="82" y="848"/>
      <point x="233" y="983"/>
      <point x="397" y="983" type="curve" smooth="yes"/>
      <point x="540" y="983"/>
      <point x="668" y="909"/>
      <point x="668" y="721" type="curve" smooth="yes"/>
      <point x="668" y="578"/>
      <point x="531" y="463"/>
      <point x="392" y="463" type="curve" smooth="yes"/>
      <point x="275" y="463"/>
      <point x="133" y="516"/>
      <point x="108" y="617" type="curve"/>
      <point x="94" y="294"/>
      <point x="328" y="-15"/>
      <point x="762" y="-15" type="curve" smooth="yes"/>
      <point x="1258" y="-15"/>
      <point x="1356" y="451"/>
      <point x="1356" y="1024" type="curve" smooth="yes"/>
    </contour>
  </outline>
</glyph>
<glyph name="R.alt" format="2">
  <advance width="1358"/>
  <outline>
    <contour>
      <point x="703" y="764" type="curve" smooth="yes"/>
      <point x="403" y="764" type="line"/>
      <point x="403" y="773" type="line"/>
      <point x="703" y="773" type="line" smooth="yes"/>
      <point x="895" y="773"/>
      <point x="1002" y="909"/>
      <point x="1002" y="1127" type="curve" smooth="yes"/>
      <point x="1002" y="1345"/>
      <point x="895" y="1488"/>
      <point x="703" y="1488" type="curve" smooth="yes"/>
      <point x="42" y="1488" type="line"/>
      <point x="42" y="1500" type="line"/>
      <point x="703" y="1500" type="line" smooth="yes"/>
      <point x="1005" y="1500"/>
      <point x="1203" y="1387"/>
      <point x="1203" y="1127" type="curve" smooth="yes"/>
      <point x="1203" y="867"/>
      <point x="1025" y="764"/>
    </contour>
    <contour>
      <point x="42" y="12" type="line"/>
      <point x="672" y="12" type="line"/>
      <point x="672" y="0" type="line"/>
      <point x="42" y="0" type="line"/>
    </contour>
    <contour>
      <point x="262" y="1500" type="line"/>
      <point x="453" y="1500" type="line"/>
      <point x="453" y="0" type="line"/>
      <point x="262" y="0" type="line"/>
    </contour>
    <contour>
      <point x="1333" y="0" type="line"/>
      <point x="1301" y="0"/>
      <point x="1265" y="0"/>
      <point x="1193" y="0" type="curve" smooth="yes"/>
      <point x="727" y="0"/>
      <point x="1165" y="761"/>
      <point x="693" y="761" type="curve" smooth="yes"/>
      <point x="403" y="761" type="line"/>
      <point x="403" y="770" type="line"/>
      <point x="733" y="770" type="line" smooth="yes"/>
      <point x="1419" y="770"/>
      <point x="1036" y="12"/>
      <point x="1262" y="12" type="curve" smooth="yes"/>
      <point x="1304" y="12"/>
      <point x="1305" y="12"/>
      <point x="1333" y="12" type="curve"/>
    </contour>
  </outline>
</glyph>
<glyph name="fj.lig" format="2">
  <advance width="1122"/>
  <outline>
    <contour>
      <point x="57" y="12" type="line"/>
      <point x="606" y="12" type="line"/>
      <point x="606" y="0" type="line"/>
      <point x="57" y="0" type="line"/>
    </contour>
    <contour>
      <point x="946" y="-24" type="line" smooth="yes"/>
      <point x="946" y="-286"/>
      <point x="893" y="-520"/>
      <point x="633" y="-520" type="curve" smooth="yes"/>
      <point x="471" y="-520"/>
      <point x="387" y="-416"/>
      <point x="387" y="-302" type="curve" smooth="yes"/>
      <point x="387" y="-220"/>
      <point x="440" y="-178"/>
      <point x="500" y="-178" type="curve" smooth="yes"/>
      <point x="550" y="-178"/>
      <point x="612" y="-206"/>
      <point x="612" y="-286" type="curve" smooth="yes"/>
      <point x="612" y="-365"/>
      <point x="556" y="-398"/>
      <point x="490" y="-398" type="curve" smooth="yes"/>
      <point x="450" y="-398"/>
      <point x="409" y="-365"/>
      <point x="403" y="-332" type="curve"/>
      <point x="412" y="-427"/>
      <point x="496" y="-506"/>
      <point x="622" y="-506" type="curve" smooth="yes"/>
      <point x="802" y="-506"/>
      <point x="767" y="-214"/>
      <point x="767" y="40" type="curve" smooth="yes"/>
      <point x="767" y="908" type="line"/>
      <point x="57" y="908" type="line"/>
      <point x="57" y="920" type="line"/>
      <point x="946" y="920" type="line"/>
    </contour>
    <contour>
      <point x="939" y="1334" type="curve"/>
      <point x="934" y="1413"/>
      <point x="862" y="1507"/>
      <point x="670" y="1507" type="curve" smooth="yes"/>
      <point x="473" y="1507"/>
      <point x="416" y="1334"/>
      <point x="416" y="1080" type="curve" smooth="yes"/>
      <point x="416" y="0" type="line"/>
      <point x="236" y="0" type="line"/>
      <point x="236" y="1024" type="line" smooth="yes"/>
      <point x="236" y="1286"/>
      <point x="370" y="1520"/>
      <point x="670" y="1520" type="curve" smooth="yes"/>
      <point x="872" y="1520"/>
      <point x="956" y="1418"/>
      <point x="956" y="1304" type="curve" smooth="yes"/>
      <point x="956" y="1222"/>
      <point x="903" y="1180"/>
      <point x="843" y="1180" type="curve" smooth="yes"/>
      <point x="793" y="1180"/>
      <point x="730" y="1209"/>
      <point x="730" y="1289" type="curve" smooth="yes"/>
      <point x="730" y="1366"/>
      <point x="792" y="1400"/>
      <point x="845" y="1400" type="curve" smooth="yes"/>
      <point x="900" y="1400"/>
      <point x="930" y="1366"/>
    </contour>
  </outline>
</glyph>
<glyph name="four.alt" format="2">
  <advance width="1189"/>
  <outline>
    <contour>
      <point x="1060" y="12" type="line"/>
      <point x="1060" y="0" type="line"/>
      <point x="530" y="0" type="line"/>
      <point x="530" y="12" type="line"/>
    </contour>
    <contour>
      <point x="910" y="996" type="curve"/>
      <point x="910" y="-1" type="line"/>
      <point x="720" y="-1" type="line"/>
      <point x="720" y="956" type="line"/>
      <point x="780" y="956"/>
      <point x="870" y="976"/>
    </contour>
    <contour>
      <point x="50" y="380" type="curve"/>
      <point x="1090" y="380" type="line"/>
      <point x="1090" y="368" type="line"/>
      <point x="30" y="368" type="line"/>
      <point x="310" y="768"/>
      <point x="640" y="1200"/>
      <point x="680" y="1500" type="curve"/>
      <point x="876" y="1500" type="line"/>
      <point x="838" y="1210"/>
      <point x="332" y="768"/>
    </contour>
  </outline>
</glyph>
